<svg version="1.1" xmlns="http://www.w3.org/2000/svg" xmlns:xlink="http://www.w3.org/1999/xlink" width="1468" height="1228"><defs></defs><g><g transform="translate(-118,-38) scale(1,1)"><rect fill="#C0C0C0" stroke="none" x="231" y="55" width="1352" height="1208" opacity="0.2"></rect></g><g transform="translate(-118,-38) scale(1,1)"><rect fill="#ffffff" stroke="none" x="224" y="48" width="1352" height="1208"></rect></g><g transform="translate(-118,-38) scale(1,1)"><path fill="none" stroke="#000000" d="M 224 48 L 1576 48 L 1576 1256 L 224 1256 L 224 48 Z Z" stroke-miterlimit="10"></path></g><g transform="translate(-118,-38) scale(1,1)"><g><path fill="none" stroke="none"></path><text fill="#000000" stroke="none" font-family="Arial" font-size="13px" font-style="normal" font-weight="bold" text-decoration="none" x="872.5" y="67.5">Examibur</text></g></g><g transform="translate(-118,-38) scale(1,1)"><path fill="none" stroke="#000000" d="M 205 177 L 893 527" stroke-miterlimit="10"></path></g><g transform="translate(-118,-38) scale(1,1)"><path fill="none" stroke="#000000" d="M 211 572 L 987 1111" stroke-miterlimit="10"></path></g><g transform="translate(-118,-38) scale(1,1)"><path fill="none" stroke="#000000" d="M 205 181 L 845 583" stroke-miterlimit="10"></path></g><g transform="translate(-118,-38) scale(1,1)"><path fill="none" stroke="#000000" d="M 211 503 L 565 163" stroke-miterlimit="10"></path></g><g transform="translate(-118,-38) scale(1,1)"><path fill="#ffffff" stroke="none" d="M 161.32072727272728 129.68 C 161.32072727272728 124.886167936 165.20656959767274 121 170 121 C 174.79343040232726 121 178.67927272727272 124.886167936 178.67927272727272 129.68 C 178.67927272727272 134.47383206400002 174.79343040232726 138.36 170 138.36 C 165.20656959767274 138.36 161.32072727272728 134.47383206400002 161.32072727272728 129.68 Z"></path></g><g transform="translate(-118,-38) scale(1,1)"><path fill="none" stroke="#000000" d="M 161.32072727272728 129.68 C 161.32072727272728 124.886167936 165.20656959767274 121 170 121 C 174.79343040232726 121 178.67927272727272 124.886167936 178.67927272727272 129.68 C 178.67927272727272 134.47383206400002 174.79343040232726 138.36 170 138.36 C 165.20656959767274 138.36 161.32072727272728 134.47383206400002 161.32072727272728 129.68 Z" stroke-miterlimit="10"></path></g><g transform="translate(-118,-38) scale(1,1)"><path fill="none" stroke="#000000" d="M 170 138.36 L 170 155.64" stroke-miterlimit="10"></path></g><g transform="translate(-118,-38) scale(1,1)"><path fill="none" stroke="#000000" d="M 160.81018181818183 144.84 L 179.18981818181817 144.84" stroke-miterlimit="10"></path></g><g transform="translate(-118,-38) scale(1,1)"><path fill="none" stroke="#000000" d="M 170 155.64 L 157.23636363636365 173" stroke-miterlimit="10"></path></g><g transform="translate(-118,-38) scale(1,1)"><path fill="none" stroke="#000000" d="M 170 155.64 L 182.76363636363635 173" stroke-miterlimit="10"></path></g><g transform="translate(-118,-38) scale(1,1)"><g><path fill="none" stroke="none"></path><text fill="#000000" stroke="none" font-family="Arial" font-size="13px" font-style="normal" font-weight="bold" text-decoration="none" x="143.5" y="193.5">Korrektor</text></g></g><g transform="translate(-118,-38) scale(1,1)"><path fill="#ffffff" stroke="none" d="M 160.32072727272728 513.6800000000001 C 160.32072727272728 508.88616793600005 164.20656959767274 505 169 505 C 173.79343040232726 505 177.67927272727272 508.88616793600005 177.67927272727272 513.6800000000001 C 177.67927272727272 518.473832064 173.79343040232726 522.36 169 522.36 C 164.20656959767274 522.36 160.32072727272728 518.473832064 160.32072727272728 513.6800000000001 Z"></path></g><g transform="translate(-118,-38) scale(1,1)"><path fill="none" stroke="#000000" d="M 160.32072727272728 513.6800000000001 C 160.32072727272728 508.88616793600005 164.20656959767274 505 169 505 C 173.79343040232726 505 177.67927272727272 508.88616793600005 177.67927272727272 513.6800000000001 C 177.67927272727272 518.473832064 173.79343040232726 522.36 169 522.36 C 164.20656959767274 522.36 160.32072727272728 518.473832064 160.32072727272728 513.6800000000001 Z" stroke-miterlimit="10"></path></g><g transform="translate(-118,-38) scale(1,1)"><path fill="none" stroke="#000000" d="M 169 522.36 L 169 539.64" stroke-miterlimit="10"></path></g><g transform="translate(-118,-38) scale(1,1)"><path fill="none" stroke="#000000" d="M 159.81018181818183 528.84 L 178.18981818181817 528.84" stroke-miterlimit="10"></path></g><g transform="translate(-118,-38) scale(1,1)"><path fill="none" stroke="#000000" d="M 169 539.64 L 156.23636363636365 557" stroke-miterlimit="10"></path></g><g transform="translate(-118,-38) scale(1,1)"><path fill="none" stroke="#000000" d="M 169 539.64 L 181.76363636363635 557" stroke-miterlimit="10"></path></g><g transform="translate(-118,-38) scale(1,1)"><g><path fill="none" stroke="none"></path><text fill="#000000" stroke="none" font-family="Arial" font-size="13px" font-style="normal" font-weight="bold" text-decoration="none" x="143.5" y="577.5">Reviewer</text></g></g><g transform="translate(-118,-38) scale(1,1)"><path fill="#ffffff" stroke="none" d="M 160.32072727272728 881.6800000000001 C 160.32072727272728 876.8861679360001 164.20656959767274 873 169 873 C 173.79343040232726 873 177.67927272727272 876.8861679360001 177.67927272727272 881.6800000000001 C 177.67927272727272 886.473832064 173.79343040232726 890.36 169 890.36 C 164.20656959767274 890.36 160.32072727272728 886.473832064 160.32072727272728 881.6800000000001 Z"></path></g><g transform="translate(-118,-38) scale(1,1)"><path fill="none" stroke="#000000" d="M 160.32072727272728 881.6800000000001 C 160.32072727272728 876.8861679360001 164.20656959767274 873 169 873 C 173.79343040232726 873 177.67927272727272 876.8861679360001 177.67927272727272 881.6800000000001 C 177.67927272727272 886.473832064 173.79343040232726 890.36 169 890.36 C 164.20656959767274 890.36 160.32072727272728 886.473832064 160.32072727272728 881.6800000000001 Z" stroke-miterlimit="10"></path></g><g transform="translate(-118,-38) scale(1,1)"><path fill="none" stroke="#000000" d="M 169 890.36 L 169 907.64" stroke-miterlimit="10"></path></g><g transform="translate(-118,-38) scale(1,1)"><path fill="none" stroke="#000000" d="M 159.81018181818183 896.84 L 178.18981818181817 896.84" stroke-miterlimit="10"></path></g><g transform="translate(-118,-38) scale(1,1)"><path fill="none" stroke="#000000" d="M 169 907.64 L 156.23636363636365 925" stroke-miterlimit="10"></path></g><g transform="translate(-118,-38) scale(1,1)"><path fill="none" stroke="#000000" d="M 169 907.64 L 181.76363636363635 925" stroke-miterlimit="10"></path></g><g transform="translate(-118,-38) scale(1,1)"><g><path fill="none" stroke="none"></path><text fill="#000000" stroke="none" font-family="Arial" font-size="13px" font-style="normal" font-weight="bold" text-decoration="none" x="137" y="945.5">Verwaltung</text></g></g><g transform="translate(-118,-38) scale(1,1)"><path fill="#C0C0C0" stroke="none" d="M 463 152 C 463 142.6111584 520.3075456 135 591 135 C 661.6924544 135 719 142.6111584 719 152 C 719 161.3888416 661.6924544 169 591 169 C 520.3075456 169 463 161.3888416 463 152 Z" opacity="0.2"></path></g><g transform="translate(-118,-38) scale(1,1)"><path fill="#ffffff" stroke="none" d="M 456 145 C 456 135.6111584 513.3075456 128 584 128 C 654.6924544 128 712 135.6111584 712 145 C 712 154.3888416 654.6924544 162 584 162 C 513.3075456 162 456 154.3888416 456 145 Z"></path></g><g transform="translate(-118,-38) scale(1,1)"><path fill="none" stroke="#000000" d="M 456 145 C 456 135.6111584 513.3075456 128 584 128 C 654.6924544 128 712 135.6111584 712 145 C 712 154.3888416 654.6924544 162 584 162 C 513.3075456 162 456 154.3888416 456 145 Z" stroke-miterlimit="10"></path></g><g transform="translate(-118,-38) scale(1,1)"><g><path fill="none" stroke="none"></path><text fill="#000000" stroke="none" font-family="Arial" font-size="13px" font-style="normal" font-weight="bold" text-decoration="none" x="505.5" y="152">UC001 Prüfungen anzeigen</text></g></g><g transform="translate(-118,-38) scale(1,1)"><path fill="none" stroke="#000000" d="M 205 158 L 455 149" stroke-miterlimit="10"></path></g><g transform="translate(-118,-38) scale(1,1)"><path fill="none" stroke="#000000" d="M 191 871 L 574 163" stroke-miterlimit="10"></path></g><g transform="translate(-118,-38) scale(1,1)"><path fill="#C0C0C0" stroke="none" d="M 503 216 C 503 206.6111584 549.1146656 199 606 199 C 662.8853344 199 709 206.6111584 709 216 C 709 225.3888416 662.8853344 233 606 233 C 549.1146656 233 503 225.3888416 503 216 Z" opacity="0.2"></path></g><g transform="translate(-118,-38) scale(1,1)"><path fill="#ffffff" stroke="none" d="M 496 209 C 496 199.6111584 542.1146656 192 599 192 C 655.8853344 192 702 199.6111584 702 209 C 702 218.3888416 655.8853344 226 599 226 C 542.1146656 226 496 218.3888416 496 209 Z"></path></g><g transform="translate(-118,-38) scale(1,1)"><path fill="none" stroke="#000000" d="M 496 209 C 496 199.6111584 542.1146656 192 599 192 C 655.8853344 192 702 199.6111584 702 209 C 702 218.3888416 655.8853344 226 599 226 C 542.1146656 226 496 218.3888416 496 209 Z" stroke-miterlimit="10"></path></g><g transform="translate(-118,-38) scale(1,1)"><g><path fill="none" stroke="none"></path><text fill="#000000" stroke="none" font-family="Arial" font-size="13px" font-style="normal" font-weight="bold" text-decoration="none" x="536.5" y="216">UC002 Prüfung öffnen</text></g></g><g transform="translate(-118,-38) scale(1,1)"><path fill="#C0C0C0" stroke="none" d="M 791 184 C 791 174.6111584 868.0070144 167 963 167 C 1057.9929855999999 167 1135 174.6111584 1135 184 C 1135 193.3888416 1057.9929855999999 201 963 201 C 868.0070144 201 791 193.3888416 791 184 Z" opacity="0.2"></path></g><g transform="translate(-118,-38) scale(1,1)"><path fill="#ffffff" stroke="none" d="M 784 177 C 784 167.6111584 861.0070144 160 956 160 C 1050.9929855999999 160 1128 167.6111584 1128 177 C 1128 186.3888416 1050.9929855999999 194 956 194 C 861.0070144 194 784 186.3888416 784 177 Z"></path></g><g transform="translate(-118,-38) scale(1,1)"><path fill="none" stroke="#000000" d="M 784 177 C 784 167.6111584 861.0070144 160 956 160 C 1050.9929855999999 160 1128 167.6111584 1128 177 C 1128 186.3888416 1050.9929855999999 194 956 194 C 861.0070144 194 784 186.3888416 784 177 Z" stroke-miterlimit="10"></path></g><g transform="translate(-118,-38) scale(1,1)"><g><path fill="none" stroke="none"></path><text fill="#000000" stroke="none" font-family="Arial" font-size="13px" font-style="normal" font-weight="bold" text-decoration="none" x="849.5" y="184">UC003 Prüfungsteilnahmen anzeigen</text></g></g><g transform="translate(-118,-38) scale(1,1)"><path fill="#C0C0C0" stroke="none" d="M 799 256 C 799 246.6111584 872.2014352 239 962.5 239 C 1052.7985648 239 1126 246.6111584 1126 256 C 1126 265.3888416 1052.7985648 273 962.5 273 C 872.2014352 273 799 265.3888416 799 256 Z" opacity="0.2"></path></g><g transform="translate(-118,-38) scale(1,1)"><path fill="#ffffff" stroke="none" d="M 792 249 C 792 239.6111584 865.2014352 232 955.5 232 C 1045.7985648 232 1119 239.6111584 1119 249 C 1119 258.3888416 1045.7985648 266 955.5 266 C 865.2014352 266 792 258.3888416 792 249 Z"></path></g><g transform="translate(-118,-38) scale(1,1)"><path fill="none" stroke="#000000" d="M 792 249 C 792 239.6111584 865.2014352 232 955.5 232 C 1045.7985648 232 1119 239.6111584 1119 249 C 1119 258.3888416 1045.7985648 266 955.5 266 C 865.2014352 266 792 258.3888416 792 249 Z" stroke-miterlimit="10"></path></g><g transform="translate(-118,-38) scale(1,1)"><g><path fill="none" stroke="none"></path><text fill="#000000" stroke="none" font-family="Arial" font-size="13px" font-style="normal" font-weight="bold" text-decoration="none" x="854.5" y="256">UC004 Prüfungsaufgaben anzeigen</text></g></g><g transform="translate(-118,-38) scale(1,1)"><path fill="none" stroke="#000000" d="M 703 200 L 783 193" stroke-miterlimit="10" stroke-dasharray="3"></path></g><g transform="translate(-118,-38) scale(1,1)"><path fill="none" stroke="#000000" d="M 773.2429379788243 198.07934451626704 L 783 193 L 772.5090763289338 189.69235423180413" stroke-miterlimit="10"></path></g><g transform="translate(-118,-38) scale(1,1)"><g><path fill="none" stroke="none"></path><text fill="#000000" stroke="none" font-family="Arial" font-size="13px" font-style="normal" font-weight="normal" text-decoration="none" x="705.5" y="189.5">«include»</text></g></g><g transform="translate(-118,-38) scale(1,1)"><path fill="none" stroke="#000000" d="M 703 221 L 795 231" stroke-miterlimit="10" stroke-dasharray="3"></path></g><g transform="translate(-118,-38) scale(1,1)"><path fill="none" stroke="#000000" d="M 784.4419560201726 234.08669844980517 L 795 231 L 785.3517101004629 225.71696091113347" stroke-miterlimit="10"></path></g><g transform="translate(-118,-38) scale(1,1)"><g><path fill="none" stroke="none"></path><text fill="#000000" stroke="none" font-family="Arial" font-size="13px" font-style="normal" font-weight="normal" text-decoration="none" x="726.5" y="220.5">«include»</text></g></g><g transform="translate(-118,-38) scale(1,1)"><path fill="none" stroke="#000000" d="M 194 871 L 588 227" stroke-miterlimit="10"></path></g><g transform="translate(-118,-38) scale(1,1)"><path fill="none" stroke="#000000" d="M 205 163 L 495 197" stroke-miterlimit="10"></path></g><g transform="translate(-118,-38) scale(1,1)"><path fill="#C0C0C0" stroke="none" d="M 823 352 C 823 342.6111584 900.9024448 335 997 335 C 1093.0975552 335 1171 342.6111584 1171 352 C 1171 361.3888416 1093.0975552 369 997 369 C 900.9024448 369 823 361.3888416 823 352 Z" opacity="0.2"></path></g><g transform="translate(-118,-38) scale(1,1)"><path fill="#ffffff" stroke="none" d="M 816 345 C 816 335.6111584 893.9024448 328 990 328 C 1086.0975552 328 1164 335.6111584 1164 345 C 1164 354.3888416 1086.0975552 362 990 362 C 893.9024448 362 816 354.3888416 816 345 Z"></path></g><g transform="translate(-118,-38) scale(1,1)"><path fill="none" stroke="#000000" d="M 816 345 C 816 335.6111584 893.9024448 328 990 328 C 1086.0975552 328 1164 335.6111584 1164 345 C 1164 354.3888416 1086.0975552 362 990 362 C 893.9024448 362 816 354.3888416 816 345 Z" stroke-miterlimit="10"></path></g><g transform="translate(-118,-38) scale(1,1)"><g><path fill="none" stroke="none"></path><text fill="#000000" stroke="none" font-family="Arial" font-size="13px" font-style="normal" font-weight="bold" text-decoration="none" x="883" y="352">UC005 Prüfungsteilnahme korrigieren</text></g></g><g transform="translate(-118,-38) scale(1,1)"><path fill="none" stroke="#000000" d="M 205 167 L 911 327" stroke-miterlimit="10"></path></g><g transform="translate(-118,-38) scale(1,1)"><path fill="#C0C0C0" stroke="none" d="M 839 424 C 839 414.6111584 913.0968656 407 1004.5 407 C 1095.9031344 407 1170 414.6111584 1170 424 C 1170 433.3888416 1095.9031344 441 1004.5 441 C 913.0968656 441 839 433.3888416 839 424 Z" opacity="0.2"></path></g><g transform="translate(-118,-38) scale(1,1)"><path fill="#ffffff" stroke="none" d="M 832 417 C 832 407.6111584 906.0968656 400 997.5 400 C 1088.9031344 400 1163 407.6111584 1163 417 C 1163 426.3888416 1088.9031344 434 997.5 434 C 906.0968656 434 832 426.3888416 832 417 Z"></path></g><g transform="translate(-118,-38) scale(1,1)"><path fill="none" stroke="#000000" d="M 832 417 C 832 407.6111584 906.0968656 400 997.5 400 C 1088.9031344 400 1163 407.6111584 1163 417 C 1163 426.3888416 1088.9031344 434 997.5 434 C 906.0968656 434 832 426.3888416 832 417 Z" stroke-miterlimit="10"></path></g><g transform="translate(-118,-38) scale(1,1)"><g><path fill="none" stroke="none"></path><text fill="#000000" stroke="none" font-family="Arial" font-size="13px" font-style="normal" font-weight="bold" text-decoration="none" x="896" y="424">UC006 Prüfungsaufgabe korrigieren</text></g></g><g transform="translate(-118,-38) scale(1,1)"><path fill="none" stroke="#000000" d="M 205 170 L 939 399" stroke-miterlimit="10"></path></g><g transform="translate(-118,-38) scale(1,1)"><path fill="#C0C0C0" stroke="none" d="M 1271 392 C 1271 382.6111584 1327.6359728 375 1397.5 375 C 1467.3640272 375 1524 382.6111584 1524 392 C 1524 401.3888416 1467.3640272 409 1397.5 409 C 1327.6359728 409 1271 401.3888416 1271 392 Z" opacity="0.2"></path></g><g transform="translate(-118,-38) scale(1,1)"><path fill="#ffffff" stroke="none" d="M 1264 385 C 1264 375.6111584 1320.6359728 368 1390.5 368 C 1460.3640272 368 1517 375.6111584 1517 385 C 1517 394.3888416 1460.3640272 402 1390.5 402 C 1320.6359728 402 1264 394.3888416 1264 385 Z"></path></g><g transform="translate(-118,-38) scale(1,1)"><path fill="none" stroke="#000000" d="M 1264 385 C 1264 375.6111584 1320.6359728 368 1390.5 368 C 1460.3640272 368 1517 375.6111584 1517 385 C 1517 394.3888416 1460.3640272 402 1390.5 402 C 1320.6359728 402 1264 394.3888416 1264 385 Z" stroke-miterlimit="10"></path></g><g transform="translate(-118,-38) scale(1,1)"><g><path fill="none" stroke="none"></path><text fill="#000000" stroke="none" font-family="Arial" font-size="13px" font-style="normal" font-weight="bold" text-decoration="none" x="1313.5" y="392">UC007 Aufgabe korrigieren</text></g></g><g transform="translate(-118,-38) scale(1,1)"><path fill="none" stroke="#000000" d="M 1165 363 L 1263 372" stroke-miterlimit="10" stroke-dasharray="3"></path></g><g transform="translate(-118,-38) scale(1,1)"><path fill="none" stroke="#000000" d="M 1252.4949435118224 375.262481904961 L 1263 372 L 1253.2648802419656 366.87872639895824" stroke-miterlimit="10"></path></g><g transform="translate(-118,-38) scale(1,1)"><g><path fill="none" stroke="none"></path><text fill="#000000" stroke="none" font-family="Arial" font-size="13px" font-style="normal" font-weight="normal" text-decoration="none" x="1199.5" y="352.5">«include»</text></g></g><g transform="translate(-118,-38) scale(1,1)"><path fill="none" stroke="#000000" d="M 1164 403 L 1263 395" stroke-miterlimit="10" stroke-dasharray="3"></path></g><g transform="translate(-118,-38) scale(1,1)"><path fill="none" stroke="#000000" d="M 1253.2094022159774 400.01439877068935 L 1263 395 L 1252.5312865407197 391.62271728937554" stroke-miterlimit="10"></path></g><g transform="translate(-118,-38) scale(1,1)"><g><path fill="none" stroke="none"></path><text fill="#000000" stroke="none" font-family="Arial" font-size="13px" font-style="normal" font-weight="normal" text-decoration="none" x="1172.5" y="390.5">«include»</text></g></g><g transform="translate(-118,-38) scale(1,1)"><path fill="#C0C0C0" stroke="none" d="M 831 496 C 831 486.6111584 906.6638688 479 1000 479 C 1093.3361312 479 1169 486.6111584 1169 496 C 1169 505.3888416 1093.3361312 513 1000 513 C 906.6638688 513 831 505.3888416 831 496 Z" opacity="0.2"></path></g><g transform="translate(-118,-38) scale(1,1)"><path fill="#ffffff" stroke="none" d="M 824 489 C 824 479.6111584 899.6638688 472 993 472 C 1086.3361312 472 1162 479.6111584 1162 489 C 1162 498.3888416 1086.3361312 506 993 506 C 899.6638688 506 824 498.3888416 824 489 Z"></path></g><g transform="translate(-118,-38) scale(1,1)"><path fill="none" stroke="#000000" d="M 824 489 C 824 479.6111584 899.6638688 472 993 472 C 1086.3361312 472 1162 479.6111584 1162 489 C 1162 498.3888416 1086.3361312 506 993 506 C 899.6638688 506 824 498.3888416 824 489 Z" stroke-miterlimit="10"></path></g><g transform="translate(-118,-38) scale(1,1)"><g><path fill="none" stroke="none"></path><text fill="#000000" stroke="none" font-family="Arial" font-size="13px" font-style="normal" font-weight="bold" text-decoration="none" x="890.5" y="496">UC008 Prüfung für Review freigeben</text></g></g><g transform="translate(-118,-38) scale(1,1)"><path fill="none" stroke="#000000" d="M 205 173 L 948 471" stroke-miterlimit="10"></path></g><g transform="translate(-118,-38) scale(1,1)"><path fill="#C0C0C0" stroke="none" d="M 855 1072 C 855 1062.6111584 929.3207232 1055 1021 1055 C 1112.6792768 1055 1187 1062.6111584 1187 1072 C 1187 1081.3888416 1112.6792768 1089 1021 1089 C 929.3207232 1089 855 1081.3888416 855 1072 Z" opacity="0.2"></path></g><g transform="translate(-118,-38) scale(1,1)"><path fill="#ffffff" stroke="none" d="M 848 1065 C 848 1055.6111584 922.3207232 1048 1014 1048 C 1105.6792768 1048 1180 1055.6111584 1180 1065 C 1180 1074.3888416 1105.6792768 1082 1014 1082 C 922.3207232 1082 848 1074.3888416 848 1065 Z"></path></g><g transform="translate(-118,-38) scale(1,1)"><path fill="none" stroke="#000000" d="M 848 1065 C 848 1055.6111584 922.3207232 1048 1014 1048 C 1105.6792768 1048 1180 1055.6111584 1180 1065 C 1180 1074.3888416 1105.6792768 1082 1014 1082 C 922.3207232 1082 848 1074.3888416 848 1065 Z" stroke-miterlimit="10"></path></g><g transform="translate(-118,-38) scale(1,1)"><g><path fill="none" stroke="none"></path><text fill="#000000" stroke="none" font-family="Arial" font-size="13px" font-style="normal" font-weight="bold" text-decoration="none" x="912.5" y="1072">UC011 Prüfungsteilnahme reviewen</text></g></g><g transform="translate(-118,-38) scale(1,1)"><path fill="#C0C0C0" stroke="none" d="M 863 1136 C 863 1126.6111584 933.515144 1119 1020.5 1119 C 1107.484856 1119 1178 1126.6111584 1178 1136 C 1178 1145.3888416 1107.484856 1153 1020.5 1153 C 933.515144 1153 863 1145.3888416 863 1136 Z" opacity="0.2"></path></g><g transform="translate(-118,-38) scale(1,1)"><path fill="#ffffff" stroke="none" d="M 856 1129 C 856 1119.6111584 926.515144 1112 1013.5 1112 C 1100.484856 1112 1171 1119.6111584 1171 1129 C 1171 1138.3888416 1100.484856 1146 1013.5 1146 C 926.515144 1146 856 1138.3888416 856 1129 Z"></path></g><g transform="translate(-118,-38) scale(1,1)"><path fill="none" stroke="#000000" d="M 856 1129 C 856 1119.6111584 926.515144 1112 1013.5 1112 C 1100.484856 1112 1171 1119.6111584 1171 1129 C 1171 1138.3888416 1100.484856 1146 1013.5 1146 C 926.515144 1146 856 1138.3888416 856 1129 Z" stroke-miterlimit="10"></path></g><g transform="translate(-118,-38) scale(1,1)"><g><path fill="none" stroke="none"></path><text fill="#000000" stroke="none" font-family="Arial" font-size="13px" font-style="normal" font-weight="bold" text-decoration="none" x="917.5" y="1136">UC012 Prüfungsaufgabe reviewen</text></g></g><g transform="translate(-118,-38) scale(1,1)"><path fill="#C0C0C0" stroke="none" d="M 1255 1104 C 1255 1094.6111584 1308.2781088 1087 1374 1087 C 1439.7218912 1087 1493 1094.6111584 1493 1104 C 1493 1113.3888416 1439.7218912 1121 1374 1121 C 1308.2781088 1121 1255 1113.3888416 1255 1104 Z" opacity="0.2"></path></g><g transform="translate(-118,-38) scale(1,1)"><path fill="#ffffff" stroke="none" d="M 1248 1097 C 1248 1087.6111584 1301.2781088 1080 1367 1080 C 1432.7218912 1080 1486 1087.6111584 1486 1097 C 1486 1106.3888416 1432.7218912 1114 1367 1114 C 1301.2781088 1114 1248 1106.3888416 1248 1097 Z"></path></g><g transform="translate(-118,-38) scale(1,1)"><path fill="none" stroke="#000000" d="M 1248 1097 C 1248 1087.6111584 1301.2781088 1080 1367 1080 C 1432.7218912 1080 1486 1087.6111584 1486 1097 C 1486 1106.3888416 1432.7218912 1114 1367 1114 C 1301.2781088 1114 1248 1106.3888416 1248 1097 Z" stroke-miterlimit="10"></path></g><g transform="translate(-118,-38) scale(1,1)"><g><path fill="none" stroke="none"></path><text fill="#000000" stroke="none" font-family="Arial" font-size="13px" font-style="normal" font-weight="bold" text-decoration="none" x="1295.5" y="1104">UC013 Aufgabe reviewen</text></g></g><g transform="translate(-118,-38) scale(1,1)"><path fill="none" stroke="#000000" d="M 1181 1080 L 1247 1086" stroke-miterlimit="10" stroke-dasharray="3"></path></g><g transform="translate(-118,-38) scale(1,1)"><path fill="none" stroke="#000000" d="M 1236.4979493192318 1089.2721447856989 L 1247 1086 L 1237.260172980272 1080.8876845142559" stroke-miterlimit="10"></path></g><g transform="translate(-118,-38) scale(1,1)"><g><path fill="none" stroke="none"></path><text fill="#000000" stroke="none" font-family="Arial" font-size="13px" font-style="normal" font-weight="normal" text-decoration="none" x="1226.5" y="1075.5">«include»</text></g></g><g transform="translate(-118,-38) scale(1,1)"><path fill="none" stroke="#000000" d="M 1172 1115 L 1247 1108" stroke-miterlimit="10" stroke-dasharray="3"></path></g><g transform="translate(-118,-38) scale(1,1)"><path fill="none" stroke="#000000" d="M 1237.2724903052415 1113.135713693186 L 1247 1108 L 1236.490113952094 1104.7531099094626" stroke-miterlimit="10"></path></g><g transform="translate(-118,-38) scale(1,1)"><g><path fill="none" stroke="none"></path><text fill="#000000" stroke="none" font-family="Arial" font-size="13px" font-style="normal" font-weight="normal" text-decoration="none" x="1220.5" y="1127.5">«include»</text></g></g><g transform="translate(-118,-38) scale(1,1)"><path fill="#C0C0C0" stroke="none" d="M 903 904 C 903 894.6111584 993.4384704 887 1105 887 C 1216.5615296 887 1307 894.6111584 1307 904 C 1307 913.3888416 1216.5615296 921 1105 921 C 993.4384704 921 903 913.3888416 903 904 Z" opacity="0.2"></path></g><g transform="translate(-118,-38) scale(1,1)"><path fill="#ffffff" stroke="none" d="M 896 897 C 896 887.6111584 986.4384704 880 1098 880 C 1209.5615296 880 1300 887.6111584 1300 897 C 1300 906.3888416 1209.5615296 914 1098 914 C 986.4384704 914 896 906.3888416 896 897 Z"></path></g><g transform="translate(-118,-38) scale(1,1)"><path fill="none" stroke="#000000" d="M 896 897 C 896 887.6111584 986.4384704 880 1098 880 C 1209.5615296 880 1300 887.6111584 1300 897 C 1300 906.3888416 1209.5615296 914 1098 914 C 986.4384704 914 896 906.3888416 896 897 Z" stroke-miterlimit="10"></path></g><g transform="translate(-118,-38) scale(1,1)"><g><path fill="none" stroke="none"></path><text fill="#000000" stroke="none" font-family="Arial" font-size="13px" font-style="normal" font-weight="bold" text-decoration="none" x="1016.5" y="904">UC014 Review abschliessen</text></g></g><g transform="translate(-118,-38) scale(1,1)"><path fill="none" stroke="#000000" d="M 211 559 L 1051 879" stroke-miterlimit="10"></path></g><g transform="translate(-118,-38) scale(1,1)"><path fill="#C0C0C0" stroke="none" d="M 759 552 C 759 542.6111584 838.0217328 535 935.5 535 C 1032.9782672000001 535 1112 542.6111584 1112 552 C 1112 561.3888416 1032.9782672000001 569 935.5 569 C 838.0217328 569 759 561.3888416 759 552 Z" opacity="0.2"></path></g><g transform="translate(-118,-38) scale(1,1)"><path fill="#ffffff" stroke="none" d="M 752 545 C 752 535.6111584 831.0217328 528 928.5 528 C 1025.9782672000001 528 1105 535.6111584 1105 545 C 1105 554.3888416 1025.9782672000001 562 928.5 562 C 831.0217328 562 752 554.3888416 752 545 Z"></path></g><g transform="translate(-118,-38) scale(1,1)"><path fill="none" stroke="#000000" d="M 752 545 C 752 535.6111584 831.0217328 528 928.5 528 C 1025.9782672000001 528 1105 535.6111584 1105 545 C 1105 554.3888416 1025.9782672000001 562 928.5 562 C 831.0217328 562 752 554.3888416 752 545 Z" stroke-miterlimit="10"></path></g><g transform="translate(-118,-38) scale(1,1)"><g><path fill="none" stroke="none"></path><text fill="#000000" stroke="none" font-family="Arial" font-size="13px" font-style="normal" font-weight="bold" text-decoration="none" x="816" y="552">UC016 Prüfungskorrektur abschliessen</text></g></g><g transform="translate(-118,-38) scale(1,1)"><path fill="#C0C0C0" stroke="none" d="M 751 608 C 751 598.6111584 809.202976 591 881 591 C 952.797024 591 1011 598.6111584 1011 608 C 1011 617.3888416 952.797024 625 881 625 C 809.202976 625 751 617.3888416 751 608 Z" opacity="0.2"></path></g><g transform="translate(-118,-38) scale(1,1)"><path fill="#ffffff" stroke="none" d="M 744 601 C 744 591.6111584 802.202976 584 874 584 C 945.797024 584 1004 591.6111584 1004 601 C 1004 610.3888416 945.797024 618 874 618 C 802.202976 618 744 610.3888416 744 601 Z"></path></g><g transform="translate(-118,-38) scale(1,1)"><path fill="none" stroke="#000000" d="M 744 601 C 744 591.6111584 802.202976 584 874 584 C 945.797024 584 1004 591.6111584 1004 601 C 1004 610.3888416 945.797024 618 874 618 C 802.202976 618 744 610.3888416 744 601 Z" stroke-miterlimit="10"></path></g><g transform="translate(-118,-38) scale(1,1)"><g><path fill="none" stroke="none"></path><text fill="#000000" stroke="none" font-family="Arial" font-size="13px" font-style="normal" font-weight="bold" text-decoration="none" x="792" y="608">UC017 Notenskala festlegen</text></g></g><g transform="translate(-118,-38) scale(1,1)"><path fill="#C0C0C0" stroke="none" d="M 863 120 C 863 110.6111584 917.3973968 103 984.5 103 C 1051.6026032 103 1106 110.6111584 1106 120 C 1106 129.3888416 1051.6026032 137 984.5 137 C 917.3973968 137 863 129.3888416 863 120 Z" opacity="0.2"></path></g><g transform="translate(-118,-38) scale(1,1)"><path fill="#ffffff" stroke="none" d="M 856 113 C 856 103.6111584 910.3973968 96 977.5 96 C 1044.6026032 96 1099 103.6111584 1099 113 C 1099 122.3888416 1044.6026032 130 977.5 130 C 910.3973968 130 856 122.3888416 856 113 Z"></path></g><g transform="translate(-118,-38) scale(1,1)"><path fill="none" stroke="#000000" d="M 856 113 C 856 103.6111584 910.3973968 96 977.5 96 C 1044.6026032 96 1099 103.6111584 1099 113 C 1099 122.3888416 1044.6026032 130 977.5 130 C 910.3973968 130 856 122.3888416 856 113 Z" stroke-miterlimit="10"></path></g><g transform="translate(-118,-38) scale(1,1)"><g><path fill="none" stroke="none"></path><text fill="#000000" stroke="none" font-family="Arial" font-size="13px" font-style="normal" font-weight="bold" text-decoration="none" x="902.5" y="120">UC018 Prüfung auswerten</text></g></g><g transform="translate(-118,-38) scale(1,1)"><path fill="#C0C0C0" stroke="none" d="M 703 736 C 703 726.6111584 791.8714672 719 901.5 719 C 1011.1285328 719 1100 726.6111584 1100 736 C 1100 745.3888416 1011.1285328 753 901.5 753 C 791.8714672 753 703 745.3888416 703 736 Z" opacity="0.2"></path></g><g transform="translate(-118,-38) scale(1,1)"><path fill="#ffffff" stroke="none" d="M 696 729 C 696 719.6111584 784.8714672 712 894.5 712 C 1004.1285328 712 1093 719.6111584 1093 729 C 1093 738.3888416 1004.1285328 746 894.5 746 C 784.8714672 746 696 738.3888416 696 729 Z"></path></g><g transform="translate(-118,-38) scale(1,1)"><path fill="none" stroke="#000000" d="M 696 729 C 696 719.6111584 784.8714672 712 894.5 712 C 1004.1285328 712 1093 719.6111584 1093 729 C 1093 738.3888416 1004.1285328 746 894.5 746 C 784.8714672 746 696 738.3888416 696 729 Z" stroke-miterlimit="10"></path></g><g transform="translate(-118,-38) scale(1,1)"><g><path fill="none" stroke="none"></path><text fill="#000000" stroke="none" font-family="Arial" font-size="13px" font-style="normal" font-weight="bold" text-decoration="none" x="772" y="736">UC023 Prüfung auf Modulebene auswerten</text></g></g><g transform="translate(-118,-38) scale(1,1)"><path fill="none" stroke="#000000" d="M 205 187 L 871 711" stroke-miterlimit="10"></path></g><g transform="translate(-118,-38) scale(1,1)"><path fill="#C0C0C0" stroke="none" d="M 663 840 C 663 830.6111584 712.6963872 823 774 823 C 835.3036128 823 885 830.6111584 885 840 C 885 849.3888416 835.3036128 857 774 857 C 712.6963872 857 663 849.3888416 663 840 Z" opacity="0.2"></path></g><g transform="translate(-118,-38) scale(1,1)"><path fill="#ffffff" stroke="none" d="M 656 833 C 656 823.6111584 705.6963872 816 767 816 C 828.3036128 816 878 823.6111584 878 833 C 878 842.3888416 828.3036128 850 767 850 C 705.6963872 850 656 842.3888416 656 833 Z"></path></g><g transform="translate(-118,-38) scale(1,1)"><path fill="none" stroke="#000000" d="M 656 833 C 656 823.6111584 705.6963872 816 767 816 C 828.3036128 816 878 823.6111584 878 833 C 878 842.3888416 828.3036128 850 767 850 C 705.6963872 850 656 842.3888416 656 833 Z" stroke-miterlimit="10"></path></g><g transform="translate(-118,-38) scale(1,1)"><g><path fill="none" stroke="none"></path><text fill="#000000" stroke="none" font-family="Arial" font-size="13px" font-style="normal" font-weight="bold" text-decoration="none" x="698" y="840">UC019 ToDo's anzeigen</text></g></g><g transform="translate(-118,-38) scale(1,1)"><path fill="none" stroke="#000000" d="M 211 563 L 730 815" stroke-miterlimit="10"></path></g><g transform="translate(-118,-38) scale(1,1)"><path fill="none" stroke="#000000" d="M 205 199 L 751 815" stroke-miterlimit="10"></path></g><g transform="translate(-118,-38) scale(1,1)"><path fill="#C0C0C0" stroke="none" d="M 543 1224 C 543 1214.6111584 641.0496287999999 1207 762 1207 C 882.9503712000001 1207 981 1214.6111584 981 1224 C 981 1233.3888416 882.9503712000001 1241 762 1241 C 641.0496287999999 1241 543 1233.3888416 543 1224 Z" opacity="0.2"></path></g><g transform="translate(-118,-38) scale(1,1)"><path fill="#ffffff" stroke="none" d="M 536 1217 C 536 1207.6111584 634.0496287999999 1200 755 1200 C 875.9503712000001 1200 974 1207.6111584 974 1217 C 974 1226.3888416 875.9503712000001 1234 755 1234 C 634.0496287999999 1234 536 1226.3888416 536 1217 Z"></path></g><g transform="translate(-118,-38) scale(1,1)"><path fill="none" stroke="#000000" d="M 536 1217 C 536 1207.6111584 634.0496287999999 1200 755 1200 C 875.9503712000001 1200 974 1207.6111584 974 1217 C 974 1226.3888416 875.9503712000001 1234 755 1234 C 634.0496287999999 1234 536 1226.3888416 536 1217 Z" stroke-miterlimit="10"></path></g><g transform="translate(-118,-38) scale(1,1)"><g><path fill="none" stroke="none"></path><text fill="#000000" stroke="none" font-family="Arial" font-size="13px" font-style="normal" font-weight="bold" text-decoration="none" x="618.5" y="1224">UC021 Prüfungsteilnahme an Student freigeben</text></g></g><g transform="translate(-118,-38) scale(1,1)"><path fill="none" stroke="#000000" d="M 211 933 L 721 1199" stroke-miterlimit="10"></path></g><g transform="translate(-118,-38) scale(1,1)"><path fill="#C0C0C0" stroke="none" d="M 383 944 C 383 934.6111584 449.7095648 927 532 927 C 614.2904352 927 681 934.6111584 681 944 C 681 953.3888416 614.2904352 961 532 961 C 449.7095648 961 383 953.3888416 383 944 Z" opacity="0.2"></path></g><g transform="translate(-118,-38) scale(1,1)"><path fill="#ffffff" stroke="none" d="M 376 937 C 376 927.6111584 442.7095648 920 525 920 C 607.2904352 920 674 927.6111584 674 937 C 674 946.3888416 607.2904352 954 525 954 C 442.7095648 954 376 946.3888416 376 937 Z"></path></g><g transform="translate(-118,-38) scale(1,1)"><path fill="none" stroke="#000000" d="M 376 937 C 376 927.6111584 442.7095648 920 525 920 C 607.2904352 920 674 927.6111584 674 937 C 674 946.3888416 607.2904352 954 525 954 C 442.7095648 954 376 946.3888416 376 937 Z" stroke-miterlimit="10"></path></g><g transform="translate(-118,-38) scale(1,1)"><g><path fill="none" stroke="none"></path><text fill="#000000" stroke="none" font-family="Arial" font-size="13px" font-style="normal" font-weight="bold" text-decoration="none" x="433" y="944">UC022 Notenexport durchführen</text></g></g><g transform="translate(-118,-38) scale(1,1)"><path fill="none" stroke="#000000" d="M 211 914 L 375 926" stroke-miterlimit="10"></path></g><g transform="translate(-118,-38) scale(1,1)"><path fill="none" stroke="#000000" d="M 189 200 L 517 919" stroke-miterlimit="10"></path></g><g transform="translate(-118,-38) scale(1,1)"><path fill="none" stroke="#000000" d="M 211 510 L 576 227" stroke-miterlimit="10"></path></g><g transform="translate(-118,-38) scale(1,1)"><path fill="none" stroke="#000000" d="M 211 569 L 985 1047" stroke-miterlimit="10"></path></g><g transform="translate(-118,-38) scale(1,1)"><path fill="none" stroke="#000000" d="M 670 191 L 906 131" stroke-miterlimit="10" stroke-dasharray="3"></path></g><g transform="translate(-118,-38) scale(1,1)"><path fill="none" stroke="#000000" d="M 897.1878753719011 137.58380281743402 L 906 131 L 895.1134353006075 129.42433853701294" stroke-miterlimit="10"></path></g><g transform="translate(-118,-38) scale(1,1)"><g><path fill="none" stroke="none"></path><text fill="#000000" stroke="none" font-family="Arial" font-size="13px" font-style="normal" font-weight="normal" text-decoration="none" x="752.5" y="137.5">«include»</text></g></g></g></svg>