<svg version="1.1" xmlns="http://www.w3.org/2000/svg" xmlns:xlink="http://www.w3.org/1999/xlink" width="772" height="940"><defs></defs><g><g transform="translate(-134,-54) scale(1,1)"><rect fill="#C0C0C0" stroke="none" x="327" y="71" width="576" height="920" opacity="0.2"></rect></g><g transform="translate(-134,-54) scale(1,1)"><rect fill="#ffffff" stroke="none" x="320" y="64" width="576" height="920"></rect></g><g transform="translate(-134,-54) scale(1,1)"><path fill="none" stroke="#000000" d="M 320 64 L 896 64 L 896 984 L 320 984 L 320 64 Z Z" stroke-miterlimit="10"></path></g><g transform="translate(-134,-54) scale(1,1)"><g><path fill="none" stroke="none"></path><text fill="#000000" stroke="none" font-family="Arial" font-size="13px" font-style="normal" font-weight="bold" text-decoration="none" x="580.5" y="83.5">Examibur</text></g></g><g transform="translate(-134,-54) scale(1,1)"><path fill="#ffffff" stroke="none" d="M 177.82072727272728 129.68 C 177.82072727272728 124.886167936 181.70656959767274 121 186.5 121 C 191.29343040232726 121 195.17927272727272 124.886167936 195.17927272727272 129.68 C 195.17927272727272 134.47383206400002 191.29343040232726 138.36 186.5 138.36 C 181.70656959767274 138.36 177.82072727272728 134.47383206400002 177.82072727272728 129.68 Z"></path></g><g transform="translate(-134,-54) scale(1,1)"><path fill="none" stroke="#000000" d="M 177.82072727272728 129.68 C 177.82072727272728 124.886167936 181.70656959767274 121 186.5 121 C 191.29343040232726 121 195.17927272727272 124.886167936 195.17927272727272 129.68 C 195.17927272727272 134.47383206400002 191.29343040232726 138.36 186.5 138.36 C 181.70656959767274 138.36 177.82072727272728 134.47383206400002 177.82072727272728 129.68 Z" stroke-miterlimit="10"></path></g><g transform="translate(-134,-54) scale(1,1)"><path fill="none" stroke="#000000" d="M 186.5 138.36 L 186.5 155.64" stroke-miterlimit="10"></path></g><g transform="translate(-134,-54) scale(1,1)"><path fill="none" stroke="#000000" d="M 177.31018181818183 144.84 L 195.68981818181817 144.84" stroke-miterlimit="10"></path></g><g transform="translate(-134,-54) scale(1,1)"><path fill="none" stroke="#000000" d="M 186.5 155.64 L 173.73636363636365 173" stroke-miterlimit="10"></path></g><g transform="translate(-134,-54) scale(1,1)"><path fill="none" stroke="#000000" d="M 186.5 155.64 L 199.26363636363635 173" stroke-miterlimit="10"></path></g><g transform="translate(-134,-54) scale(1,1)"><g><path fill="none" stroke="none"></path><text fill="#000000" stroke="none" font-family="Arial" font-size="13px" font-style="normal" font-weight="bold" text-decoration="none" x="166" y="193.5">Dozent</text></g></g><g transform="translate(-134,-54) scale(1,1)"><path fill="#ffffff" stroke="none" d="M 176.32072727272728 329.68 C 176.32072727272728 324.886167936 180.20656959767274 321 185 321 C 189.79343040232726 321 193.67927272727272 324.886167936 193.67927272727272 329.68 C 193.67927272727272 334.473832064 189.79343040232726 338.36 185 338.36 C 180.20656959767274 338.36 176.32072727272728 334.473832064 176.32072727272728 329.68 Z"></path></g><g transform="translate(-134,-54) scale(1,1)"><path fill="none" stroke="#000000" d="M 176.32072727272728 329.68 C 176.32072727272728 324.886167936 180.20656959767274 321 185 321 C 189.79343040232726 321 193.67927272727272 324.886167936 193.67927272727272 329.68 C 193.67927272727272 334.473832064 189.79343040232726 338.36 185 338.36 C 180.20656959767274 338.36 176.32072727272728 334.473832064 176.32072727272728 329.68 Z" stroke-miterlimit="10"></path></g><g transform="translate(-134,-54) scale(1,1)"><path fill="none" stroke="#000000" d="M 185 338.36 L 185 355.64" stroke-miterlimit="10"></path></g><g transform="translate(-134,-54) scale(1,1)"><path fill="none" stroke="#000000" d="M 175.81018181818183 344.84 L 194.18981818181817 344.84" stroke-miterlimit="10"></path></g><g transform="translate(-134,-54) scale(1,1)"><path fill="none" stroke="#000000" d="M 185 355.64 L 172.23636363636365 373" stroke-miterlimit="10"></path></g><g transform="translate(-134,-54) scale(1,1)"><path fill="none" stroke="#000000" d="M 185 355.64 L 197.76363636363635 373" stroke-miterlimit="10"></path></g><g transform="translate(-134,-54) scale(1,1)"><g><path fill="none" stroke="none"></path><text fill="#000000" stroke="none" font-family="Arial" font-size="13px" font-style="normal" font-weight="bold" text-decoration="none" x="153" y="393.5">Verwaltung</text></g></g><g transform="translate(-134,-54) scale(1,1)"><path fill="#ffffff" stroke="none" d="M 172.32072727272728 513.6800000000001 C 172.32072727272728 508.88616793600005 176.20656959767274 505 181 505 C 185.79343040232726 505 189.67927272727272 508.88616793600005 189.67927272727272 513.6800000000001 C 189.67927272727272 518.473832064 185.79343040232726 522.36 181 522.36 C 176.20656959767274 522.36 172.32072727272728 518.473832064 172.32072727272728 513.6800000000001 Z"></path></g><g transform="translate(-134,-54) scale(1,1)"><path fill="none" stroke="#000000" d="M 172.32072727272728 513.6800000000001 C 172.32072727272728 508.88616793600005 176.20656959767274 505 181 505 C 185.79343040232726 505 189.67927272727272 508.88616793600005 189.67927272727272 513.6800000000001 C 189.67927272727272 518.473832064 185.79343040232726 522.36 181 522.36 C 176.20656959767274 522.36 172.32072727272728 518.473832064 172.32072727272728 513.6800000000001 Z" stroke-miterlimit="10"></path></g><g transform="translate(-134,-54) scale(1,1)"><path fill="none" stroke="#000000" d="M 181 522.36 L 181 539.64" stroke-miterlimit="10"></path></g><g transform="translate(-134,-54) scale(1,1)"><path fill="none" stroke="#000000" d="M 171.81018181818183 528.84 L 190.18981818181817 528.84" stroke-miterlimit="10"></path></g><g transform="translate(-134,-54) scale(1,1)"><path fill="none" stroke="#000000" d="M 181 539.64 L 168.23636363636365 557" stroke-miterlimit="10"></path></g><g transform="translate(-134,-54) scale(1,1)"><path fill="none" stroke="#000000" d="M 181 539.64 L 193.76363636363635 557" stroke-miterlimit="10"></path></g><g transform="translate(-134,-54) scale(1,1)"><g><path fill="none" stroke="none"></path><text fill="#000000" stroke="none" font-family="Arial" font-size="13px" font-style="normal" font-weight="bold" text-decoration="none" x="158.5" y="577.5">Student</text></g></g></g></svg>