<svg version="1.1" xmlns="http://www.w3.org/2000/svg" xmlns:xlink="http://www.w3.org/1999/xlink" width="1060" height="1652"><defs></defs><g><g transform="translate(-38,-46) scale(1,1)"><rect fill="#C0C0C0" stroke="none" x="55" y="447" width="415.6" height="15" opacity="0.2"></rect></g><g transform="translate(-38,-46) scale(1,1)"><rect fill="#C0C0C0" stroke="none" x="55" y="461" width="1039" height="234" opacity="0.2"></rect></g><g transform="translate(-38,-46) scale(1,1)"><rect fill="#e2e2e2" stroke="none" x="48" y="455" width="1039" height="233"></rect></g><g transform="translate(-38,-46) scale(1,1)"><path fill="none" stroke="#000000" d="M 48 455 L 1087 455 L 1087 688 L 48 688 L 48 455 Z Z" stroke-miterlimit="10"></path></g><g transform="translate(-38,-46) scale(1,1)"><rect fill="#e2e2e2" stroke="none" x="48" y="440" width="415.6" height="15"></rect></g><g transform="translate(-38,-46) scale(1,1)"><path fill="none" stroke="#000000" d="M 48 440 L 463.6 440 L 463.6 455 L 48 455 L 48 440 Z Z" stroke-miterlimit="10"></path></g><g transform="translate(-38,-46) scale(1,1)"><rect fill="#e2e2e2" stroke="none" x="48" y="454" width="1039" height="234"></rect></g><g transform="translate(-38,-46) scale(1,1)"><path fill="none" stroke="#000000" d="M 48 454 L 1087 454 L 1087 688 L 48 688 L 48 454 Z Z" stroke-miterlimit="10"></path></g><g transform="translate(-38,-46) scale(1,1)"><g><path fill="none" stroke="none"></path><text fill="#000000" stroke="none" font-family="Arial" font-size="13px" font-style="normal" font-weight="bold" text-decoration="none" x="547.5" y="474.5">service</text></g></g><g transform="translate(-38,-46) scale(1,1)"><rect fill="#C0C0C0" stroke="none" x="95" y="511" width="172.8" height="15" opacity="0.2"></rect></g><g transform="translate(-38,-46) scale(1,1)"><rect fill="#C0C0C0" stroke="none" x="95" y="525" width="432" height="114" opacity="0.2"></rect></g><g transform="translate(-38,-46) scale(1,1)"><rect fill="#e2e2e2" stroke="none" x="88" y="519" width="432" height="113"></rect></g><g transform="translate(-38,-46) scale(1,1)"><path fill="none" stroke="#000000" d="M 88 519 L 520 519 L 520 632 L 88 632 L 88 519 Z Z" stroke-miterlimit="10"></path></g><g transform="translate(-38,-46) scale(1,1)"><rect fill="#e2e2e2" stroke="none" x="88" y="504" width="172.8" height="15"></rect></g><g transform="translate(-38,-46) scale(1,1)"><path fill="none" stroke="#000000" d="M 88 504 L 260.8 504 L 260.8 519 L 88 519 L 88 504 Z Z" stroke-miterlimit="10"></path></g><g transform="translate(-38,-46) scale(1,1)"><rect fill="#e2e2e2" stroke="none" x="88" y="518" width="432" height="114"></rect></g><g transform="translate(-38,-46) scale(1,1)"><path fill="none" stroke="#000000" d="M 88 518 L 520 518 L 520 632 L 88 632 L 88 518 Z Z" stroke-miterlimit="10"></path></g><g transform="translate(-38,-46) scale(1,1)"><g><path fill="none" stroke="none"></path><text fill="#000000" stroke="none" font-family="Arial" font-size="13px" font-style="normal" font-weight="bold" text-decoration="none" x="295.5" y="538.5">api</text></g></g><g transform="translate(-38,-46) scale(1,1)"><rect fill="#C0C0C0" stroke="none" x="55" y="1055" width="415.6" height="15" opacity="0.2"></rect></g><g transform="translate(-38,-46) scale(1,1)"><rect fill="#C0C0C0" stroke="none" x="55" y="1069" width="1039" height="234" opacity="0.2"></rect></g><g transform="translate(-38,-46) scale(1,1)"><rect fill="#ffffff" stroke="none" x="48" y="1063" width="1039" height="233"></rect></g><g transform="translate(-38,-46) scale(1,1)"><path fill="none" stroke="#000000" d="M 48 1063 L 1087 1063 L 1087 1296 L 48 1296 L 48 1063 Z Z" stroke-miterlimit="10"></path></g><g transform="translate(-38,-46) scale(1,1)"><rect fill="#ffffff" stroke="none" x="48" y="1048" width="415.6" height="15"></rect></g><g transform="translate(-38,-46) scale(1,1)"><path fill="none" stroke="#000000" d="M 48 1048 L 463.6 1048 L 463.6 1063 L 48 1063 L 48 1048 Z Z" stroke-miterlimit="10"></path></g><g transform="translate(-38,-46) scale(1,1)"><rect fill="#ffffff" stroke="none" x="48" y="1062" width="1039" height="234"></rect></g><g transform="translate(-38,-46) scale(1,1)"><path fill="none" stroke="#000000" d="M 48 1062 L 1087 1062 L 1087 1296 L 48 1296 L 48 1062 Z Z" stroke-miterlimit="10"></path></g><g transform="translate(-38,-46) scale(1,1)"><g><path fill="none" stroke="none"></path><text fill="#000000" stroke="none" font-family="Arial" font-size="13px" font-style="normal" font-weight="bold" text-decoration="none" x="537.5" y="1082.5">integration</text></g></g><g transform="translate(-38,-46) scale(1,1)"><rect fill="#C0C0C0" stroke="none" x="55" y="63" width="416" height="15" opacity="0.2"></rect></g><g transform="translate(-38,-46) scale(1,1)"><rect fill="#C0C0C0" stroke="none" x="55" y="77" width="1040" height="346" opacity="0.2"></rect></g><g transform="translate(-38,-46) scale(1,1)"><rect fill="#ffffff" stroke="none" x="48" y="71" width="1040" height="345"></rect></g><g transform="translate(-38,-46) scale(1,1)"><path fill="none" stroke="#000000" d="M 48 71 L 1088 71 L 1088 416 L 48 416 L 48 71 Z Z" stroke-miterlimit="10"></path></g><g transform="translate(-38,-46) scale(1,1)"><rect fill="#ffffff" stroke="none" x="48" y="56" width="416" height="15"></rect></g><g transform="translate(-38,-46) scale(1,1)"><path fill="none" stroke="#000000" d="M 48 56 L 464 56 L 464 71 L 48 71 L 48 56 Z Z" stroke-miterlimit="10"></path></g><g transform="translate(-38,-46) scale(1,1)"><rect fill="#ffffff" stroke="none" x="48" y="70" width="1040" height="346"></rect></g><g transform="translate(-38,-46) scale(1,1)"><path fill="none" stroke="#000000" d="M 48 70 L 1088 70 L 1088 416 L 48 416 L 48 70 Z Z" stroke-miterlimit="10"></path></g><g transform="translate(-38,-46) scale(1,1)"><g><path fill="none" stroke="none"></path><text fill="#000000" stroke="none" font-family="Arial" font-size="13px" font-style="normal" font-weight="bold" text-decoration="none" x="563" y="90.5">ui</text></g></g><g transform="translate(-38,-46) scale(1,1)"><rect fill="#C0C0C0" stroke="none" x="95" y="111" width="384" height="15" opacity="0.2"></rect></g><g transform="translate(-38,-46) scale(1,1)"><rect fill="#C0C0C0" stroke="none" x="95" y="125" width="960" height="274" opacity="0.2"></rect></g><g transform="translate(-38,-46) scale(1,1)"><rect fill="#ffffff" stroke="none" x="88" y="119" width="960" height="273"></rect></g><g transform="translate(-38,-46) scale(1,1)"><path fill="none" stroke="#000000" d="M 88 119 L 1048 119 L 1048 392 L 88 392 L 88 119 Z Z" stroke-miterlimit="10"></path></g><g transform="translate(-38,-46) scale(1,1)"><rect fill="#ffffff" stroke="none" x="88" y="104" width="384" height="15"></rect></g><g transform="translate(-38,-46) scale(1,1)"><path fill="none" stroke="#000000" d="M 88 104 L 472 104 L 472 119 L 88 119 L 88 104 Z Z" stroke-miterlimit="10"></path></g><g transform="translate(-38,-46) scale(1,1)"><rect fill="#ffffff" stroke="none" x="88" y="118" width="960" height="274"></rect></g><g transform="translate(-38,-46) scale(1,1)"><path fill="none" stroke="#000000" d="M 88 118 L 1048 118 L 1048 392 L 88 392 L 88 118 Z Z" stroke-miterlimit="10"></path></g><g transform="translate(-38,-46) scale(1,1)"><g><path fill="none" stroke="none"></path><text fill="#000000" stroke="none" font-family="Arial" font-size="13px" font-style="normal" font-weight="bold" text-decoration="none" x="557.5" y="138.5">app</text></g></g><g transform="translate(-38,-46) scale(1,1)"><rect fill="#C0C0C0" stroke="none" x="111" y="143" width="81" height="44" opacity="0.2"></rect></g><g transform="translate(-38,-46) scale(1,1)"><rect fill="#ffffff" stroke="none" x="104" y="136" width="81" height="44"></rect></g><g transform="translate(-38,-46) scale(1,1)"><path fill="none" stroke="#000000" d="M 104 136 L 185 136 L 185 180 L 104 180 L 104 136 Z Z" stroke-miterlimit="10"></path></g><g transform="translate(-38,-46) scale(1,1)"><path fill="none" stroke="#000000" d="M 104 161 L 185 161" stroke-miterlimit="10"></path></g><g transform="translate(-38,-46) scale(1,1)"><path fill="none" stroke="#000000" d="M 104 171 L 185 171" stroke-miterlimit="10"></path></g><g transform="translate(-38,-46) scale(1,1)"><g><path fill="none" stroke="none"></path><text fill="#000000" stroke="none" font-family="Arial" font-size="13px" font-style="normal" font-weight="bold" text-decoration="none" x="112.5" y="155.5">Application</text></g></g><g transform="translate(-38,-46) scale(1,1)"><rect fill="#C0C0C0" stroke="none" x="55" y="1615" width="415.6" height="15" opacity="0.2"></rect></g><g transform="translate(-38,-46) scale(1,1)"><rect fill="#C0C0C0" stroke="none" x="55" y="1629" width="1039" height="66" opacity="0.2"></rect></g><g transform="translate(-38,-46) scale(1,1)"><rect fill="#ffffff" stroke="none" x="48" y="1623" width="1039" height="65"></rect></g><g transform="translate(-38,-46) scale(1,1)"><path fill="none" stroke="#000000" d="M 48 1623 L 1087 1623 L 1087 1688 L 48 1688 L 48 1623 Z Z" stroke-miterlimit="10"></path></g><g transform="translate(-38,-46) scale(1,1)"><rect fill="#ffffff" stroke="none" x="48" y="1608" width="415.6" height="15"></rect></g><g transform="translate(-38,-46) scale(1,1)"><path fill="none" stroke="#000000" d="M 48 1608 L 463.6 1608 L 463.6 1623 L 48 1623 L 48 1608 Z Z" stroke-miterlimit="10"></path></g><g transform="translate(-38,-46) scale(1,1)"><rect fill="#ffffff" stroke="none" x="48" y="1622" width="1039" height="66"></rect></g><g transform="translate(-38,-46) scale(1,1)"><path fill="none" stroke="#000000" d="M 48 1622 L 1087 1622 L 1087 1688 L 48 1688 L 48 1622 Z Z" stroke-miterlimit="10"></path></g><g transform="translate(-38,-46) scale(1,1)"><g><path fill="none" stroke="none"></path><text fill="#000000" stroke="none" font-family="Arial" font-size="13px" font-style="normal" font-weight="bold" text-decoration="none" x="541" y="1642.5">database</text></g></g><g transform="translate(-38,-46) scale(1,1)"><path fill="none" stroke="#000000" d="M 565 416 L 565 440" stroke-miterlimit="10" stroke-dasharray="3"></path></g><g transform="translate(-38,-46) scale(1,1)"><path fill="none" stroke="#000000" d="M 560.790482243984 429.83732514237585 L 565 440 L 569.209517756016 429.83732514237585" stroke-miterlimit="10"></path></g><g transform="translate(-38,-46) scale(1,1)"><rect fill="#C0C0C0" stroke="none" x="111" y="551" width="152" height="44" opacity="0.2"></rect></g><g transform="translate(-38,-46) scale(1,1)"><rect fill="#e2e2e2" stroke="none" x="104" y="544" width="152" height="44"></rect></g><g transform="translate(-38,-46) scale(1,1)"><path fill="none" stroke="#000000" d="M 104 544 L 256 544 L 256 588 L 104 588 L 104 544 Z Z" stroke-miterlimit="10"></path></g><g transform="translate(-38,-46) scale(1,1)"><path fill="none" stroke="#000000" d="M 104 569 L 256 569" stroke-miterlimit="10"></path></g><g transform="translate(-38,-46) scale(1,1)"><path fill="none" stroke="#000000" d="M 104 579 L 256 579" stroke-miterlimit="10"></path></g><g transform="translate(-38,-46) scale(1,1)"><g><path fill="none" stroke="none"></path><text fill="#000000" stroke="none" font-family="Arial" font-size="13px" font-style="normal" font-weight="bold" text-decoration="none" x="114.5" y="563.5">ExamServiceResource</text></g></g><g transform="translate(-38,-46) scale(1,1)"><rect fill="#C0C0C0" stroke="none" x="55" y="727" width="316.8" height="15" opacity="0.2"></rect></g><g transform="translate(-38,-46) scale(1,1)"><rect fill="#C0C0C0" stroke="none" x="55" y="741" width="792" height="266" opacity="0.2"></rect></g><g transform="translate(-38,-46) scale(1,1)"><rect fill="#ffffff" stroke="none" x="48" y="735" width="792" height="265"></rect></g><g transform="translate(-38,-46) scale(1,1)"><path fill="none" stroke="#000000" d="M 48 735 L 840 735 L 840 1000 L 48 1000 L 48 735 Z Z" stroke-miterlimit="10"></path></g><g transform="translate(-38,-46) scale(1,1)"><rect fill="#ffffff" stroke="none" x="48" y="720" width="316.8" height="15"></rect></g><g transform="translate(-38,-46) scale(1,1)"><path fill="none" stroke="#000000" d="M 48 720 L 364.8 720 L 364.8 735 L 48 735 L 48 720 Z Z" stroke-miterlimit="10"></path></g><g transform="translate(-38,-46) scale(1,1)"><rect fill="#ffffff" stroke="none" x="48" y="734" width="792" height="266"></rect></g><g transform="translate(-38,-46) scale(1,1)"><path fill="none" stroke="#000000" d="M 48 734 L 840 734 L 840 1000 L 48 1000 L 48 734 Z Z" stroke-miterlimit="10"></path></g><g transform="translate(-38,-46) scale(1,1)"><g><path fill="none" stroke="none"></path><text fill="#000000" stroke="none" font-family="Arial" font-size="13px" font-style="normal" font-weight="bold" text-decoration="none" x="418" y="754.5">business</text></g></g><g transform="translate(-38,-46) scale(1,1)"><rect fill="#C0C0C0" stroke="none" x="95" y="783" width="169.60000000000002" height="15" opacity="0.2"></rect></g><g transform="translate(-38,-46) scale(1,1)"><rect fill="#C0C0C0" stroke="none" x="95" y="797" width="424" height="170" opacity="0.2"></rect></g><g transform="translate(-38,-46) scale(1,1)"><rect fill="#ffffff" stroke="none" x="88" y="791" width="424" height="169"></rect></g><g transform="translate(-38,-46) scale(1,1)"><path fill="none" stroke="#000000" d="M 88 791 L 512 791 L 512 960 L 88 960 L 88 791 Z Z" stroke-miterlimit="10"></path></g><g transform="translate(-38,-46) scale(1,1)"><rect fill="#ffffff" stroke="none" x="88" y="776" width="169.60000000000002" height="15"></rect></g><g transform="translate(-38,-46) scale(1,1)"><path fill="none" stroke="#000000" d="M 88 776 L 257.6 776 L 257.6 791 L 88 791 L 88 776 Z Z" stroke-miterlimit="10"></path></g><g transform="translate(-38,-46) scale(1,1)"><rect fill="#ffffff" stroke="none" x="88" y="790" width="424" height="170"></rect></g><g transform="translate(-38,-46) scale(1,1)"><path fill="none" stroke="#000000" d="M 88 790 L 512 790 L 512 960 L 88 960 L 88 790 Z Z" stroke-miterlimit="10"></path></g><g transform="translate(-38,-46) scale(1,1)"><g><path fill="none" stroke="none"></path><text fill="#000000" stroke="none" font-family="Arial" font-size="13px" font-style="normal" font-weight="bold" text-decoration="none" x="284" y="810.5">exam</text></g></g><g transform="translate(-38,-46) scale(1,1)"><rect fill="#C0C0C0" stroke="none" x="127" y="903" width="121" height="44" opacity="0.2"></rect></g><g transform="translate(-38,-46) scale(1,1)"><rect fill="#ffffff" stroke="none" x="120" y="896" width="121" height="44"></rect></g><g transform="translate(-38,-46) scale(1,1)"><path fill="none" stroke="#000000" d="M 120 896 L 241 896 L 241 940 L 120 940 L 120 896 Z Z" stroke-miterlimit="10"></path></g><g transform="translate(-38,-46) scale(1,1)"><path fill="none" stroke="#000000" d="M 120 921 L 241 921" stroke-miterlimit="10"></path></g><g transform="translate(-38,-46) scale(1,1)"><path fill="none" stroke="#000000" d="M 120 931 L 241 931" stroke-miterlimit="10"></path></g><g transform="translate(-38,-46) scale(1,1)"><g><path fill="none" stroke="none"></path><text fill="#000000" stroke="none" font-family="Arial" font-size="13px" font-style="normal" font-weight="bold" text-decoration="none" x="130.5" y="915.5">ExamServiceImpl</text></g></g><g transform="translate(-38,-46) scale(1,1)"><rect fill="#C0C0C0" stroke="none" x="135" y="839" width="93" height="44" opacity="0.2"></rect></g><g transform="translate(-38,-46) scale(1,1)"><rect fill="#ffffff" stroke="none" x="128" y="832" width="93" height="44"></rect></g><g transform="translate(-38,-46) scale(1,1)"><path fill="none" stroke="#000000" d="M 128 832 L 221 832 L 221 876 L 128 876 L 128 832 Z Z" stroke-miterlimit="10"></path></g><g transform="translate(-38,-46) scale(1,1)"><path fill="none" stroke="#000000" d="M 128 857 L 221 857" stroke-miterlimit="10"></path></g><g transform="translate(-38,-46) scale(1,1)"><path fill="none" stroke="#000000" d="M 128 867 L 221 867" stroke-miterlimit="10"></path></g><g transform="translate(-38,-46) scale(1,1)"><g><path fill="none" stroke="none"></path><text fill="#000000" stroke="none" font-family="Arial" font-size="13px" font-style="normal" font-weight="bold" text-decoration="none" x="136.5" y="851.5">ExamService</text></g></g><g transform="translate(-38,-46) scale(1,1)"><path fill="none" stroke="#000000" d="M 160 588 L 160 832" stroke-miterlimit="10" stroke-dasharray="3"></path></g><g transform="translate(-38,-46) scale(1,1)"><path fill="none" stroke="#000000" d="M 155.790482243984 821.8373251423759 L 160 832 L 164.209517756016 821.8373251423759" stroke-miterlimit="10"></path></g><g transform="translate(-38,-46) scale(1,1)"><g><path fill="none" stroke="none"></path><text fill="#000000" stroke="none" font-family="Arial" font-size="13px" font-style="normal" font-weight="normal" text-decoration="none" x="168.5" y="715.5">«uses»</text></g></g><g transform="translate(-38,-46) scale(1,1)"><rect fill="#C0C0C0" stroke="none" x="95" y="1095" width="169.60000000000002" height="15" opacity="0.2"></rect></g><g transform="translate(-38,-46) scale(1,1)"><rect fill="#C0C0C0" stroke="none" x="95" y="1109" width="424" height="178" opacity="0.2"></rect></g><g transform="translate(-38,-46) scale(1,1)"><rect fill="#ffffff" stroke="none" x="88" y="1103" width="424" height="177"></rect></g><g transform="translate(-38,-46) scale(1,1)"><path fill="none" stroke="#000000" d="M 88 1103 L 512 1103 L 512 1280 L 88 1280 L 88 1103 Z Z" stroke-miterlimit="10"></path></g><g transform="translate(-38,-46) scale(1,1)"><rect fill="#ffffff" stroke="none" x="88" y="1088" width="169.60000000000002" height="15"></rect></g><g transform="translate(-38,-46) scale(1,1)"><path fill="none" stroke="#000000" d="M 88 1088 L 257.6 1088 L 257.6 1103 L 88 1103 L 88 1088 Z Z" stroke-miterlimit="10"></path></g><g transform="translate(-38,-46) scale(1,1)"><rect fill="#ffffff" stroke="none" x="88" y="1102" width="424" height="178"></rect></g><g transform="translate(-38,-46) scale(1,1)"><path fill="none" stroke="#000000" d="M 88 1102 L 512 1102 L 512 1280 L 88 1280 L 88 1102 Z Z" stroke-miterlimit="10"></path></g><g transform="translate(-38,-46) scale(1,1)"><g><path fill="none" stroke="none"></path><text fill="#000000" stroke="none" font-family="Arial" font-size="13px" font-style="normal" font-weight="bold" text-decoration="none" x="284" y="1122.5">exam</text></g></g><g transform="translate(-38,-46) scale(1,1)"><rect fill="#C0C0C0" stroke="none" x="127" y="1135" width="70" height="44" opacity="0.2"></rect></g><g transform="translate(-38,-46) scale(1,1)"><rect fill="#ffffff" stroke="none" x="120" y="1128" width="70" height="44"></rect></g><g transform="translate(-38,-46) scale(1,1)"><path fill="none" stroke="#000000" d="M 120 1128 L 190 1128 L 190 1172 L 120 1172 L 120 1128 Z Z" stroke-miterlimit="10"></path></g><g transform="translate(-38,-46) scale(1,1)"><path fill="none" stroke="#000000" d="M 120 1153 L 190 1153" stroke-miterlimit="10"></path></g><g transform="translate(-38,-46) scale(1,1)"><path fill="none" stroke="#000000" d="M 120 1163 L 190 1163" stroke-miterlimit="10"></path></g><g transform="translate(-38,-46) scale(1,1)"><g><path fill="none" stroke="none"></path><text fill="#000000" stroke="none" font-family="Arial" font-size="13px" font-style="normal" font-weight="bold" text-decoration="none" x="126.5" y="1147.5">ExamDao</text></g></g><g transform="translate(-38,-46) scale(1,1)"><path fill="none" stroke="#000000" d="M 160 940 L 160 1128" stroke-miterlimit="10" stroke-dasharray="3"></path></g><g transform="translate(-38,-46) scale(1,1)"><path fill="none" stroke="#000000" d="M 155.790482243984 1117.837325142376 L 160 1128 L 164.209517756016 1117.837325142376" stroke-miterlimit="10"></path></g><g transform="translate(-38,-46) scale(1,1)"><rect fill="#C0C0C0" stroke="none" x="127" y="1199" width="98" height="44" opacity="0.2"></rect></g><g transform="translate(-38,-46) scale(1,1)"><rect fill="#ffffff" stroke="none" x="120" y="1192" width="98" height="44"></rect></g><g transform="translate(-38,-46) scale(1,1)"><path fill="none" stroke="#000000" d="M 120 1192 L 218 1192 L 218 1236 L 120 1236 L 120 1192 Z Z" stroke-miterlimit="10"></path></g><g transform="translate(-38,-46) scale(1,1)"><path fill="none" stroke="#000000" d="M 120 1217 L 218 1217" stroke-miterlimit="10"></path></g><g transform="translate(-38,-46) scale(1,1)"><path fill="none" stroke="#000000" d="M 120 1227 L 218 1227" stroke-miterlimit="10"></path></g><g transform="translate(-38,-46) scale(1,1)"><g><path fill="none" stroke="none"></path><text fill="#000000" stroke="none" font-family="Arial" font-size="13px" font-style="normal" font-weight="bold" text-decoration="none" x="128.5" y="1211.5">ExamDaoImpl</text></g></g><g transform="translate(-38,-46) scale(1,1)"><rect fill="#C0C0C0" stroke="none" x="55" y="1343" width="416" height="15" opacity="0.2"></rect></g><g transform="translate(-38,-46) scale(1,1)"><rect fill="#C0C0C0" stroke="none" x="55" y="1357" width="1040" height="218" opacity="0.2"></rect></g><g transform="translate(-38,-46) scale(1,1)"><rect fill="#ffffff" stroke="none" x="48" y="1351" width="1040" height="217"></rect></g><g transform="translate(-38,-46) scale(1,1)"><path fill="none" stroke="#000000" d="M 48 1351 L 1088 1351 L 1088 1568 L 48 1568 L 48 1351 Z Z" stroke-miterlimit="10"></path></g><g transform="translate(-38,-46) scale(1,1)"><rect fill="#ffffff" stroke="none" x="48" y="1336" width="416" height="15"></rect></g><g transform="translate(-38,-46) scale(1,1)"><path fill="none" stroke="#000000" d="M 48 1336 L 464 1336 L 464 1351 L 48 1351 L 48 1336 Z Z" stroke-miterlimit="10"></path></g><g transform="translate(-38,-46) scale(1,1)"><rect fill="#ffffff" stroke="none" x="48" y="1350" width="1040" height="218"></rect></g><g transform="translate(-38,-46) scale(1,1)"><path fill="none" stroke="#000000" d="M 48 1350 L 1088 1350 L 1088 1568 L 48 1568 L 48 1350 Z Z" stroke-miterlimit="10"></path></g><g transform="translate(-38,-46) scale(1,1)"><g><path fill="none" stroke="none"></path><text fill="#000000" stroke="none" font-family="Arial" font-size="13px" font-style="normal" font-weight="bold" text-decoration="none" x="547" y="1370.5">domain</text></g></g><g transform="translate(-38,-46) scale(1,1)"><path fill="none" stroke="#000000" d="M 392 1280 L 392 1336" stroke-miterlimit="10" stroke-dasharray="3"></path></g><g transform="translate(-38,-46) scale(1,1)"><path fill="none" stroke="#000000" d="M 387.790482243984 1325.837325142376 L 392 1336 L 396.209517756016 1325.837325142376" stroke-miterlimit="10"></path></g><g transform="translate(-38,-46) scale(1,1)"><rect fill="#C0C0C0" stroke="none" x="855" y="1103" width="89.60000000000002" height="15" opacity="0.2"></rect></g><g transform="translate(-38,-46) scale(1,1)"><rect fill="#C0C0C0" stroke="none" x="855" y="1117" width="224" height="162" opacity="0.2"></rect></g><g transform="translate(-38,-46) scale(1,1)"><rect fill="#ffffff" stroke="none" x="848" y="1111" width="224" height="161"></rect></g><g transform="translate(-38,-46) scale(1,1)"><path fill="none" stroke="#000000" d="M 848 1111 L 1072 1111 L 1072 1272 L 848 1272 L 848 1111 Z Z" stroke-miterlimit="10"></path></g><g transform="translate(-38,-46) scale(1,1)"><rect fill="#ffffff" stroke="none" x="848" y="1096" width="89.60000000000002" height="15"></rect></g><g transform="translate(-38,-46) scale(1,1)"><path fill="none" stroke="#000000" d="M 848 1096 L 937.6 1096 L 937.6 1111 L 848 1111 L 848 1096 Z Z" stroke-miterlimit="10"></path></g><g transform="translate(-38,-46) scale(1,1)"><rect fill="#ffffff" stroke="none" x="848" y="1110" width="224" height="162"></rect></g><g transform="translate(-38,-46) scale(1,1)"><path fill="none" stroke="#000000" d="M 848 1110 L 1072 1110 L 1072 1272 L 848 1272 L 848 1110 Z Z" stroke-miterlimit="10"></path></g><g transform="translate(-38,-46) scale(1,1)"><g><path fill="none" stroke="none"></path><text fill="#000000" stroke="none" font-family="Arial" font-size="13px" font-style="normal" font-weight="bold" text-decoration="none" x="951.5" y="1130.5">sql</text></g></g><g transform="translate(-38,-46) scale(1,1)"><rect fill="#C0C0C0" stroke="none" x="871" y="1151" width="28.399999999999977" height="15" opacity="0.2"></rect></g><g transform="translate(-38,-46) scale(1,1)"><rect fill="#C0C0C0" stroke="none" x="871" y="1165" width="71" height="42" opacity="0.2"></rect></g><g transform="translate(-38,-46) scale(1,1)"><rect fill="#ffffff" stroke="none" x="864" y="1159" width="71" height="41"></rect></g><g transform="translate(-38,-46) scale(1,1)"><path fill="none" stroke="#000000" d="M 864 1159 L 935 1159 L 935 1200 L 864 1200 L 864 1159 Z Z" stroke-miterlimit="10"></path></g><g transform="translate(-38,-46) scale(1,1)"><rect fill="#ffffff" stroke="none" x="864" y="1144" width="28.399999999999977" height="15"></rect></g><g transform="translate(-38,-46) scale(1,1)"><path fill="none" stroke="#000000" d="M 864 1144 L 892.4 1144 L 892.4 1159 L 864 1159 L 864 1144 Z Z" stroke-miterlimit="10"></path></g><g transform="translate(-38,-46) scale(1,1)"><rect fill="#ffffff" stroke="none" x="864" y="1158" width="71" height="42"></rect></g><g transform="translate(-38,-46) scale(1,1)"><path fill="none" stroke="#000000" d="M 864 1158 L 935 1158 L 935 1200 L 864 1200 L 864 1158 Z Z" stroke-miterlimit="10"></path></g><g transform="translate(-38,-46) scale(1,1)"><g><path fill="none" stroke="none"></path><text fill="#000000" stroke="none" font-family="Arial" font-size="13px" font-style="normal" font-weight="bold" text-decoration="none" x="876.5" y="1178.5">patches</text></g></g><g transform="translate(-38,-46) scale(1,1)"><path fill="none" stroke="#000000" d="M 531 688 L 531 720" stroke-miterlimit="10" stroke-dasharray="3"></path></g><g transform="translate(-38,-46) scale(1,1)"><path fill="none" stroke="#000000" d="M 526.790482243984 709.8373251423759 L 531 720 L 535.209517756016 709.8373251423759" stroke-miterlimit="10"></path></g><g transform="translate(-38,-46) scale(1,1)"><path fill="none" stroke="#000000" d="M 527 1000 L 527 1048" stroke-miterlimit="10" stroke-dasharray="3"></path></g><g transform="translate(-38,-46) scale(1,1)"><path fill="none" stroke="#000000" d="M 522.790482243984 1037.837325142376 L 527 1048 L 531.209517756016 1037.837325142376" stroke-miterlimit="10"></path></g><g transform="translate(-38,-46) scale(1,1)"><path fill="none" stroke="#000000" d="M 656 1296 L 656 1608" stroke-miterlimit="10" stroke-dasharray="3"></path></g><g transform="translate(-38,-46) scale(1,1)"><path fill="none" stroke="#000000" d="M 651.790482243984 1597.837325142376 L 656 1608 L 660.209517756016 1597.837325142376" stroke-miterlimit="10"></path></g><g transform="translate(-38,-46) scale(1,1)"><rect fill="#C0C0C0" stroke="none" x="239" y="143" width="76.80000000000001" height="15" opacity="0.2"></rect></g><g transform="translate(-38,-46) scale(1,1)"><rect fill="#C0C0C0" stroke="none" x="239" y="157" width="192" height="138" opacity="0.2"></rect></g><g transform="translate(-38,-46) scale(1,1)"><rect fill="#ffffff" stroke="none" x="232" y="151" width="192" height="137"></rect></g><g transform="translate(-38,-46) scale(1,1)"><path fill="none" stroke="#000000" d="M 232 151 L 424 151 L 424 288 L 232 288 L 232 151 Z Z" stroke-miterlimit="10"></path></g><g transform="translate(-38,-46) scale(1,1)"><rect fill="#ffffff" stroke="none" x="232" y="136" width="76.80000000000001" height="15"></rect></g><g transform="translate(-38,-46) scale(1,1)"><path fill="none" stroke="#000000" d="M 232 136 L 308.8 136 L 308.8 151 L 232 151 L 232 136 Z Z" stroke-miterlimit="10"></path></g><g transform="translate(-38,-46) scale(1,1)"><rect fill="#ffffff" stroke="none" x="232" y="150" width="192" height="138"></rect></g><g transform="translate(-38,-46) scale(1,1)"><path fill="none" stroke="#000000" d="M 232 150 L 424 150 L 424 288 L 232 288 L 232 150 Z Z" stroke-miterlimit="10"></path></g><g transform="translate(-38,-46) scale(1,1)"><g><path fill="none" stroke="none"></path><text fill="#000000" stroke="none" font-family="Arial" font-size="13px" font-style="normal" font-weight="bold" text-decoration="none" x="301.5" y="170.5">controller</text></g></g><g transform="translate(-38,-46) scale(1,1)"><path fill="none" stroke="#000000" d="M 185 160 L 232 160" stroke-miterlimit="10" stroke-dasharray="3"></path></g><g transform="translate(-38,-46) scale(1,1)"><path fill="none" stroke="#000000" d="M 221.83732514237585 164.209517756016 L 232 160 L 221.83732514237585 155.790482243984" stroke-miterlimit="10"></path></g><g transform="translate(-38,-46) scale(1,1)"><path fill="none" stroke="#000000" d="M 424 160 L 744 160" stroke-miterlimit="10" stroke-dasharray="3"></path></g><g transform="translate(-38,-46) scale(1,1)"><path fill="none" stroke="#000000" d="M 733.8373251423759 164.209517756016 L 744 160 L 733.8373251423758 155.790482243984" stroke-miterlimit="10"></path></g><g transform="translate(-38,-46) scale(1,1)"><path fill="none" stroke="#000000" d="M 323 288 L 323 504" stroke-miterlimit="10" stroke-dasharray="3"></path></g><g transform="translate(-38,-46) scale(1,1)"><path fill="none" stroke="#000000" d="M 318.790482243984 493.83732514237585 L 323 504 L 327.209517756016 493.83732514237585" stroke-miterlimit="10"></path></g><g transform="translate(-38,-46) scale(1,1)"><rect fill="#C0C0C0" stroke="none" x="751" y="135" width="28.399999999999977" height="15" opacity="0.2"></rect></g><g transform="translate(-38,-46) scale(1,1)"><rect fill="#C0C0C0" stroke="none" x="751" y="149" width="71" height="50" opacity="0.2"></rect></g><g transform="translate(-38,-46) scale(1,1)"><rect fill="#ffffff" stroke="none" x="744" y="143" width="71" height="49"></rect></g><g transform="translate(-38,-46) scale(1,1)"><path fill="none" stroke="#000000" d="M 744 143 L 815 143 L 815 192 L 744 192 L 744 143 Z Z" stroke-miterlimit="10"></path></g><g transform="translate(-38,-46) scale(1,1)"><rect fill="#ffffff" stroke="none" x="744" y="128" width="28.399999999999977" height="15"></rect></g><g transform="translate(-38,-46) scale(1,1)"><path fill="none" stroke="#000000" d="M 744 128 L 772.4 128 L 772.4 143 L 744 143 L 744 128 Z Z" stroke-miterlimit="10"></path></g><g transform="translate(-38,-46) scale(1,1)"><rect fill="#ffffff" stroke="none" x="744" y="142" width="71" height="50"></rect></g><g transform="translate(-38,-46) scale(1,1)"><path fill="none" stroke="#000000" d="M 744 142 L 815 142 L 815 192 L 744 192 L 744 142 Z Z" stroke-miterlimit="10"></path></g><g transform="translate(-38,-46) scale(1,1)"><g><path fill="none" stroke="none"></path><text fill="#000000" stroke="none" font-family="Arial" font-size="13px" font-style="normal" font-weight="bold" text-decoration="none" x="771" y="162.5">util</text></g></g><g transform="translate(-38,-46) scale(1,1)"><rect fill="#C0C0C0" stroke="none" x="559" y="295" width="41.60000000000002" height="15" opacity="0.2"></rect></g><g transform="translate(-38,-46) scale(1,1)"><rect fill="#C0C0C0" stroke="none" x="559" y="309" width="104" height="74" opacity="0.2"></rect></g><g transform="translate(-38,-46) scale(1,1)"><rect fill="#ffffff" stroke="none" x="552" y="303" width="104" height="73"></rect></g><g transform="translate(-38,-46) scale(1,1)"><path fill="none" stroke="#000000" d="M 552 303 L 656 303 L 656 376 L 552 376 L 552 303 Z Z" stroke-miterlimit="10"></path></g><g transform="translate(-38,-46) scale(1,1)"><rect fill="#ffffff" stroke="none" x="552" y="288" width="41.60000000000002" height="15"></rect></g><g transform="translate(-38,-46) scale(1,1)"><path fill="none" stroke="#000000" d="M 552 288 L 593.6 288 L 593.6 303 L 552 303 L 552 288 Z Z" stroke-miterlimit="10"></path></g><g transform="translate(-38,-46) scale(1,1)"><rect fill="#ffffff" stroke="none" x="552" y="302" width="104" height="74"></rect></g><g transform="translate(-38,-46) scale(1,1)"><path fill="none" stroke="#000000" d="M 552 302 L 656 302 L 656 376 L 552 376 L 552 302 Z Z" stroke-miterlimit="10"></path></g><g transform="translate(-38,-46) scale(1,1)"><g><path fill="none" stroke="none"></path><text fill="#000000" stroke="none" font-family="Arial" font-size="13px" font-style="normal" font-weight="bold" text-decoration="none" x="586.5" y="322.5">model</text></g></g><g transform="translate(-38,-46) scale(1,1)"><rect fill="#C0C0C0" stroke="none" x="559" y="175" width="41.60000000000002" height="15" opacity="0.2"></rect></g><g transform="translate(-38,-46) scale(1,1)"><rect fill="#C0C0C0" stroke="none" x="559" y="189" width="104" height="74" opacity="0.2"></rect></g><g transform="translate(-38,-46) scale(1,1)"><rect fill="#ffffff" stroke="none" x="552" y="183" width="104" height="73"></rect></g><g transform="translate(-38,-46) scale(1,1)"><path fill="none" stroke="#000000" d="M 552 183 L 656 183 L 656 256 L 552 256 L 552 183 Z Z" stroke-miterlimit="10"></path></g><g transform="translate(-38,-46) scale(1,1)"><rect fill="#ffffff" stroke="none" x="552" y="168" width="41.60000000000002" height="15"></rect></g><g transform="translate(-38,-46) scale(1,1)"><path fill="none" stroke="#000000" d="M 552 168 L 593.6 168 L 593.6 183 L 552 183 L 552 168 Z Z" stroke-miterlimit="10"></path></g><g transform="translate(-38,-46) scale(1,1)"><rect fill="#ffffff" stroke="none" x="552" y="182" width="104" height="74"></rect></g><g transform="translate(-38,-46) scale(1,1)"><path fill="none" stroke="#000000" d="M 552 182 L 656 182 L 656 256 L 552 256 L 552 182 Z Z" stroke-miterlimit="10"></path></g><g transform="translate(-38,-46) scale(1,1)"><g><path fill="none" stroke="none"></path><text fill="#000000" stroke="none" font-family="Arial" font-size="13px" font-style="normal" font-weight="bold" text-decoration="none" x="592" y="202.5">view</text></g></g><g transform="translate(-38,-46) scale(1,1)"><path fill="none" stroke="#000000" d="M 425 254 L 551 309" stroke-miterlimit="10" stroke-dasharray="3"></path></g><g transform="translate(-38,-46) scale(1,1)"><path fill="none" stroke="#000000" d="M 540.0019601032777 308.79235022247576 L 551 309 L 543.3700419750668 301.07638084346826" stroke-miterlimit="10"></path></g><g transform="translate(-38,-46) scale(1,1)"><path fill="none" stroke="#000000" d="M 424 212 L 552 212" stroke-miterlimit="10" stroke-dasharray="3"></path></g><g transform="translate(-38,-46) scale(1,1)"><path fill="none" stroke="#000000" d="M 541.8373251423759 216.209517756016 L 552 212 L 541.8373251423758 207.790482243984" stroke-miterlimit="10"></path></g><g transform="translate(-38,-46) scale(1,1)"><path fill="none" stroke="#000000" d="M 552 224 L 424 224" stroke-miterlimit="10" stroke-dasharray="3"></path></g><g transform="translate(-38,-46) scale(1,1)"><path fill="none" stroke="#000000" d="M 434.16267485762415 219.790482243984 L 424 224 L 434.16267485762415 228.209517756016" stroke-miterlimit="10"></path></g><g transform="translate(-38,-46) scale(1,1)"><rect fill="#C0C0C0" stroke="none" x="751" y="215" width="28.799999999999955" height="15" opacity="0.2"></rect></g><g transform="translate(-38,-46) scale(1,1)"><rect fill="#C0C0C0" stroke="none" x="751" y="229" width="72" height="58" opacity="0.2"></rect></g><g transform="translate(-38,-46) scale(1,1)"><rect fill="#ffffff" stroke="none" x="744" y="223" width="72" height="57"></rect></g><g transform="translate(-38,-46) scale(1,1)"><path fill="none" stroke="#000000" d="M 744 223 L 816 223 L 816 280 L 744 280 L 744 223 Z Z" stroke-miterlimit="10"></path></g><g transform="translate(-38,-46) scale(1,1)"><rect fill="#ffffff" stroke="none" x="744" y="208" width="28.799999999999955" height="15"></rect></g><g transform="translate(-38,-46) scale(1,1)"><path fill="none" stroke="#000000" d="M 744 208 L 772.8 208 L 772.8 223 L 744 223 L 744 208 Z Z" stroke-miterlimit="10"></path></g><g transform="translate(-38,-46) scale(1,1)"><rect fill="#ffffff" stroke="none" x="744" y="222" width="72" height="58"></rect></g><g transform="translate(-38,-46) scale(1,1)"><path fill="none" stroke="#000000" d="M 744 222 L 816 222 L 816 280 L 744 280 L 744 222 Z Z" stroke-miterlimit="10"></path></g><g transform="translate(-38,-46) scale(1,1)"><g><path fill="none" stroke="none"></path><text fill="#000000" stroke="none" font-family="Arial" font-size="13px" font-style="normal" font-weight="bold" text-decoration="none" x="758" y="242.5">webapp</text></g></g><g transform="translate(-38,-46) scale(1,1)"><path fill="none" stroke="#000000" d="M 656 237 L 744 237" stroke-miterlimit="10" stroke-dasharray="3"></path></g><g transform="translate(-38,-46) scale(1,1)"><path fill="none" stroke="#000000" d="M 733.8373251423759 241.209517756016 L 744 237 L 733.8373251423758 232.790482243984" stroke-miterlimit="10"></path></g><g transform="translate(-38,-46) scale(1,1)"><rect fill="#C0C0C0" stroke="none" x="879" y="815" width="86.39999999999998" height="15" opacity="0.2"></rect></g><g transform="translate(-38,-46) scale(1,1)"><rect fill="#C0C0C0" stroke="none" x="879" y="829" width="216" height="178" opacity="0.2"></rect></g><g transform="translate(-38,-46) scale(1,1)"><rect fill="#e2e2e2" stroke="none" x="872" y="823" width="216" height="177"></rect></g><g transform="translate(-38,-46) scale(1,1)"><path fill="none" stroke="#000000" d="M 872 823 L 1088 823 L 1088 1000 L 872 1000 L 872 823 Z Z" stroke-miterlimit="10"></path></g><g transform="translate(-38,-46) scale(1,1)"><rect fill="#e2e2e2" stroke="none" x="872" y="808" width="86.39999999999998" height="15"></rect></g><g transform="translate(-38,-46) scale(1,1)"><path fill="none" stroke="#000000" d="M 872 808 L 958.4 808 L 958.4 823 L 872 823 L 872 808 Z Z" stroke-miterlimit="10"></path></g><g transform="translate(-38,-46) scale(1,1)"><rect fill="#e2e2e2" stroke="none" x="872" y="822" width="216" height="178"></rect></g><g transform="translate(-38,-46) scale(1,1)"><path fill="none" stroke="#000000" d="M 872 822 L 1088 822 L 1088 1000 L 872 1000 L 872 822 Z Z" stroke-miterlimit="10"></path></g><g transform="translate(-38,-46) scale(1,1)"><g><path fill="none" stroke="none"></path><text fill="#000000" stroke="none" font-family="Arial" font-size="13px" font-style="normal" font-weight="bold" text-decoration="none" x="948.5" y="842.5">messaging</text></g></g><g transform="translate(-38,-46) scale(1,1)"><path fill="none" stroke="#000000" d="M 241 920 L 912 920" stroke-miterlimit="10" stroke-dasharray="3"></path></g><g transform="translate(-38,-46) scale(1,1)"><path fill="none" stroke="#000000" d="M 901.8373251423759 924.209517756016 L 912 920 L 901.8373251423758 915.790482243984" stroke-miterlimit="10"></path></g><g transform="translate(-38,-46) scale(1,1)"><rect fill="#C0C0C0" stroke="none" x="919" y="895" width="48.39999999999998" height="15" opacity="0.2"></rect></g><g transform="translate(-38,-46) scale(1,1)"><rect fill="#C0C0C0" stroke="none" x="919" y="909" width="121" height="38" opacity="0.2"></rect></g><g transform="translate(-38,-46) scale(1,1)"><rect fill="#e2e2e2" stroke="none" x="912" y="903" width="121" height="37"></rect></g><g transform="translate(-38,-46) scale(1,1)"><path fill="none" stroke="#000000" d="M 912 903 L 1033 903 L 1033 940 L 912 940 L 912 903 Z Z" stroke-miterlimit="10"></path></g><g transform="translate(-38,-46) scale(1,1)"><rect fill="#e2e2e2" stroke="none" x="912" y="888" width="48.39999999999998" height="15"></rect></g><g transform="translate(-38,-46) scale(1,1)"><path fill="none" stroke="#000000" d="M 912 888 L 960.4 888 L 960.4 903 L 912 903 L 912 888 Z Z" stroke-miterlimit="10"></path></g><g transform="translate(-38,-46) scale(1,1)"><rect fill="#e2e2e2" stroke="none" x="912" y="902" width="121" height="38"></rect></g><g transform="translate(-38,-46) scale(1,1)"><path fill="none" stroke="#000000" d="M 912 902 L 1033 902 L 1033 940 L 912 940 L 912 902 Z Z" stroke-miterlimit="10"></path></g><g transform="translate(-38,-46) scale(1,1)"><g><path fill="none" stroke="none"></path><text fill="#000000" stroke="none" font-family="Arial" font-size="13px" font-style="normal" font-weight="normal" text-decoration="none" x="946.5" y="920.5">«Queue»</text></g></g><g transform="translate(-38,-46) scale(1,1)"><g><path fill="none" stroke="none"></path><text fill="#000000" stroke="none" font-family="Arial" font-size="13px" font-style="normal" font-weight="bold" text-decoration="none" x="922" y="935.5">Benutzeraktionen</text></g></g><g transform="translate(-38,-46) scale(1,1)"><path fill="none" stroke="#000000" d="M 488 960 L 488 1336" stroke-miterlimit="10" stroke-dasharray="3"></path></g><g transform="translate(-38,-46) scale(1,1)"><path fill="none" stroke="#000000" d="M 483.790482243984 1325.837325142376 L 488 1336 L 492.209517756016 1325.837325142376" stroke-miterlimit="10"></path></g><g transform="translate(-38,-46) scale(1,1)"><rect fill="#C0C0C0" stroke="none" x="111" y="1383" width="49" height="44" opacity="0.2"></rect></g><g transform="translate(-38,-46) scale(1,1)"><rect fill="#ffffff" stroke="none" x="104" y="1376" width="49" height="44"></rect></g><g transform="translate(-38,-46) scale(1,1)"><path fill="none" stroke="#000000" d="M 104 1376 L 153 1376 L 153 1420 L 104 1420 L 104 1376 Z Z" stroke-miterlimit="10"></path></g><g transform="translate(-38,-46) scale(1,1)"><path fill="none" stroke="#000000" d="M 104 1401 L 153 1401" stroke-miterlimit="10"></path></g><g transform="translate(-38,-46) scale(1,1)"><path fill="none" stroke="#000000" d="M 104 1411 L 153 1411" stroke-miterlimit="10"></path></g><g transform="translate(-38,-46) scale(1,1)"><g><path fill="none" stroke="none"></path><text fill="#000000" stroke="none" font-family="Arial" font-size="13px" font-style="normal" font-weight="bold" text-decoration="none" x="111.5" y="1395.5">Exam</text></g></g><g transform="translate(-38,-46) scale(1,1)"><path fill="none" stroke="#000000" d="M 169 1236 L 169 1608" stroke-miterlimit="10" stroke-dasharray="3"></path></g><g transform="translate(-38,-46) scale(1,1)"><path fill="none" stroke="#000000" d="M 164.790482243984 1597.837325142376 L 169 1608 L 173.209517756016 1597.837325142376" stroke-miterlimit="10"></path></g></g></svg>