<svg version="1.1" xmlns="http://www.w3.org/2000/svg" xmlns:xlink="http://www.w3.org/1999/xlink" width="1060" height="1652"><defs></defs><g><g transform="translate(-38,-46) scale(1,1)"><rect fill="#C0C0C0" stroke="none" x="55" y="447" width="415.6" height="15" opacity="0.2"></rect></g><g transform="translate(-38,-46) scale(1,1)"><rect fill="#C0C0C0" stroke="none" x="55" y="461" width="1039" height="234" opacity="0.2"></rect></g><g transform="translate(-38,-46) scale(1,1)"><rect fill="#e2e2e2" stroke="none" x="48" y="455" width="1039" height="233"></rect></g><g transform="translate(-38,-46) scale(1,1)"><path fill="none" stroke="#000000" d="M 48 455 L 1087 455 L 1087 688 L 48 688 L 48 455 Z Z" stroke-miterlimit="10"></path></g><g transform="translate(-38,-46) scale(1,1)"><rect fill="#e2e2e2" stroke="none" x="48" y="440" width="415.6" height="15"></rect></g><g transform="translate(-38,-46) scale(1,1)"><path fill="none" stroke="#000000" d="M 48 440 L 463.6 440 L 463.6 455 L 48 455 L 48 440 Z Z" stroke-miterlimit="10"></path></g><g transform="translate(-38,-46) scale(1,1)"><rect fill="#e2e2e2" stroke="none" x="48" y="454" width="1039" height="234"></rect></g><g transform="translate(-38,-46) scale(1,1)"><path fill="none" stroke="#000000" d="M 48 454 L 1087 454 L 1087 688 L 48 688 L 48 454 Z Z" stroke-miterlimit="10"></path></g><g transform="translate(-38,-46) scale(1,1)"><g><path fill="none" stroke="none"></path><text fill="#000000" stroke="none" font-family="Arial" font-size="13px" font-style="normal" font-weight="bold" text-decoration="none" x="546.5" y="474.5">service</text></g></g><g transform="translate(-38,-46) scale(1,1)"><rect fill="#C0C0C0" stroke="none" x="279" y="511" width="172.8" height="15" opacity="0.2"></rect></g><g transform="translate(-38,-46) scale(1,1)"><rect fill="#C0C0C0" stroke="none" x="279" y="525" width="432" height="114" opacity="0.2"></rect></g><g transform="translate(-38,-46) scale(1,1)"><rect fill="#e2e2e2" stroke="none" x="272" y="519" width="432" height="113"></rect></g><g transform="translate(-38,-46) scale(1,1)"><path fill="none" stroke="#000000" d="M 272 519 L 704 519 L 704 632 L 272 632 L 272 519 Z Z" stroke-miterlimit="10"></path></g><g transform="translate(-38,-46) scale(1,1)"><rect fill="#e2e2e2" stroke="none" x="272" y="504" width="172.8" height="15"></rect></g><g transform="translate(-38,-46) scale(1,1)"><path fill="none" stroke="#000000" d="M 272 504 L 444.8 504 L 444.8 519 L 272 519 L 272 504 Z Z" stroke-miterlimit="10"></path></g><g transform="translate(-38,-46) scale(1,1)"><rect fill="#e2e2e2" stroke="none" x="272" y="518" width="432" height="114"></rect></g><g transform="translate(-38,-46) scale(1,1)"><path fill="none" stroke="#000000" d="M 272 518 L 704 518 L 704 632 L 272 632 L 272 518 Z Z" stroke-miterlimit="10"></path></g><g transform="translate(-38,-46) scale(1,1)"><g><path fill="none" stroke="none"></path><text fill="#000000" stroke="none" font-family="Arial" font-size="13px" font-style="normal" font-weight="bold" text-decoration="none" x="479.5" y="538.5">api</text></g></g><g transform="translate(-38,-46) scale(1,1)"><rect fill="#C0C0C0" stroke="none" x="55" y="1055" width="415.6" height="15" opacity="0.2"></rect></g><g transform="translate(-38,-46) scale(1,1)"><rect fill="#C0C0C0" stroke="none" x="55" y="1069" width="1039" height="234" opacity="0.2"></rect></g><g transform="translate(-38,-46) scale(1,1)"><rect fill="#ffffff" stroke="none" x="48" y="1063" width="1039" height="233"></rect></g><g transform="translate(-38,-46) scale(1,1)"><path fill="none" stroke="#000000" d="M 48 1063 L 1087 1063 L 1087 1296 L 48 1296 L 48 1063 Z Z" stroke-miterlimit="10"></path></g><g transform="translate(-38,-46) scale(1,1)"><rect fill="#ffffff" stroke="none" x="48" y="1048" width="415.6" height="15"></rect></g><g transform="translate(-38,-46) scale(1,1)"><path fill="none" stroke="#000000" d="M 48 1048 L 463.6 1048 L 463.6 1063 L 48 1063 L 48 1048 Z Z" stroke-miterlimit="10"></path></g><g transform="translate(-38,-46) scale(1,1)"><rect fill="#ffffff" stroke="none" x="48" y="1062" width="1039" height="234"></rect></g><g transform="translate(-38,-46) scale(1,1)"><path fill="none" stroke="#000000" d="M 48 1062 L 1087 1062 L 1087 1296 L 48 1296 L 48 1062 Z Z" stroke-miterlimit="10"></path></g><g transform="translate(-38,-46) scale(1,1)"><g><path fill="none" stroke="none"></path><text fill="#000000" stroke="none" font-family="Arial" font-size="13px" font-style="normal" font-weight="bold" text-decoration="none" x="537.5" y="1082.5">integration</text></g></g><g transform="translate(-38,-46) scale(1,1)"><rect fill="#C0C0C0" stroke="none" x="55" y="63" width="416" height="15" opacity="0.2"></rect></g><g transform="translate(-38,-46) scale(1,1)"><rect fill="#C0C0C0" stroke="none" x="55" y="77" width="1040" height="346" opacity="0.2"></rect></g><g transform="translate(-38,-46) scale(1,1)"><rect fill="#ffffff" stroke="none" x="48" y="71" width="1040" height="345"></rect></g><g transform="translate(-38,-46) scale(1,1)"><path fill="none" stroke="#000000" d="M 48 71 L 1088 71 L 1088 416 L 48 416 L 48 71 Z Z" stroke-miterlimit="10"></path></g><g transform="translate(-38,-46) scale(1,1)"><rect fill="#ffffff" stroke="none" x="48" y="56" width="416" height="15"></rect></g><g transform="translate(-38,-46) scale(1,1)"><path fill="none" stroke="#000000" d="M 48 56 L 464 56 L 464 71 L 48 71 L 48 56 Z Z" stroke-miterlimit="10"></path></g><g transform="translate(-38,-46) scale(1,1)"><rect fill="#ffffff" stroke="none" x="48" y="70" width="1040" height="346"></rect></g><g transform="translate(-38,-46) scale(1,1)"><path fill="none" stroke="#000000" d="M 48 70 L 1088 70 L 1088 416 L 48 416 L 48 70 Z Z" stroke-miterlimit="10"></path></g><g transform="translate(-38,-46) scale(1,1)"><g><path fill="none" stroke="none"></path><text fill="#000000" stroke="none" font-family="Arial" font-size="13px" font-style="normal" font-weight="bold" text-decoration="none" x="563" y="90.5">ui</text></g></g><g transform="translate(-38,-46) scale(1,1)"><rect fill="#C0C0C0" stroke="none" x="95" y="111" width="384" height="15" opacity="0.2"></rect></g><g transform="translate(-38,-46) scale(1,1)"><rect fill="#C0C0C0" stroke="none" x="95" y="125" width="960" height="274" opacity="0.2"></rect></g><g transform="translate(-38,-46) scale(1,1)"><rect fill="#ffffff" stroke="none" x="88" y="119" width="960" height="273"></rect></g><g transform="translate(-38,-46) scale(1,1)"><path fill="none" stroke="#000000" d="M 88 119 L 1048 119 L 1048 392 L 88 392 L 88 119 Z Z" stroke-miterlimit="10"></path></g><g transform="translate(-38,-46) scale(1,1)"><rect fill="#ffffff" stroke="none" x="88" y="104" width="384" height="15"></rect></g><g transform="translate(-38,-46) scale(1,1)"><path fill="none" stroke="#000000" d="M 88 104 L 472 104 L 472 119 L 88 119 L 88 104 Z Z" stroke-miterlimit="10"></path></g><g transform="translate(-38,-46) scale(1,1)"><rect fill="#ffffff" stroke="none" x="88" y="118" width="960" height="274"></rect></g><g transform="translate(-38,-46) scale(1,1)"><path fill="none" stroke="#000000" d="M 88 118 L 1048 118 L 1048 392 L 88 392 L 88 118 Z Z" stroke-miterlimit="10"></path></g><g transform="translate(-38,-46) scale(1,1)"><g><path fill="none" stroke="none"></path><text fill="#000000" stroke="none" font-family="Arial" font-size="13px" font-style="normal" font-weight="bold" text-decoration="none" x="557.5" y="138.5">app</text></g></g><g transform="translate(-38,-46) scale(1,1)"><rect fill="#C0C0C0" stroke="none" x="111" y="143" width="81" height="44" opacity="0.2"></rect></g><g transform="translate(-38,-46) scale(1,1)"><rect fill="#ffffff" stroke="none" x="104" y="136" width="81" height="44"></rect></g><g transform="translate(-38,-46) scale(1,1)"><path fill="none" stroke="#000000" d="M 104 136 L 185 136 L 185 180 L 104 180 L 104 136 Z Z" stroke-miterlimit="10"></path></g><g transform="translate(-38,-46) scale(1,1)"><path fill="none" stroke="#000000" d="M 104 161 L 185 161" stroke-miterlimit="10"></path></g><g transform="translate(-38,-46) scale(1,1)"><path fill="none" stroke="#000000" d="M 104 171 L 185 171" stroke-miterlimit="10"></path></g><g transform="translate(-38,-46) scale(1,1)"><g><path fill="none" stroke="none"></path><text fill="#000000" stroke="none" font-family="Arial" font-size="13px" font-style="normal" font-weight="bold" text-decoration="none" x="112.5" y="155.5">Application</text></g></g><g transform="translate(-38,-46) scale(1,1)"><rect fill="#C0C0C0" stroke="none" x="55" y="1615" width="415.6" height="15" opacity="0.2"></rect></g><g transform="translate(-38,-46) scale(1,1)"><rect fill="#C0C0C0" stroke="none" x="55" y="1629" width="1039" height="66" opacity="0.2"></rect></g><g transform="translate(-38,-46) scale(1,1)"><rect fill="#ffffff" stroke="none" x="48" y="1623" width="1039" height="65"></rect></g><g transform="translate(-38,-46) scale(1,1)"><path fill="none" stroke="#000000" d="M 48 1623 L 1087 1623 L 1087 1688 L 48 1688 L 48 1623 Z Z" stroke-miterlimit="10"></path></g><g transform="translate(-38,-46) scale(1,1)"><rect fill="#ffffff" stroke="none" x="48" y="1608" width="415.6" height="15"></rect></g><g transform="translate(-38,-46) scale(1,1)"><path fill="none" stroke="#000000" d="M 48 1608 L 463.6 1608 L 463.6 1623 L 48 1623 L 48 1608 Z Z" stroke-miterlimit="10"></path></g><g transform="translate(-38,-46) scale(1,1)"><rect fill="#ffffff" stroke="none" x="48" y="1622" width="1039" height="66"></rect></g><g transform="translate(-38,-46) scale(1,1)"><path fill="none" stroke="#000000" d="M 48 1622 L 1087 1622 L 1087 1688 L 48 1688 L 48 1622 Z Z" stroke-miterlimit="10"></path></g><g transform="translate(-38,-46) scale(1,1)"><g><path fill="none" stroke="none"></path><text fill="#000000" stroke="none" font-family="Arial" font-size="13px" font-style="normal" font-weight="bold" text-decoration="none" x="541" y="1642.5">database</text></g></g><g transform="translate(-38,-46) scale(1,1)"><path fill="none" stroke="#000000" d="M 565 416 L 565 440" stroke-miterlimit="10" stroke-dasharray="3"></path></g><g transform="translate(-38,-46) scale(1,1)"><path fill="none" stroke="#000000" d="M 560.790482243984 429.83732514237585 L 565 440 L 569.209517756016 429.83732514237585" stroke-miterlimit="10"></path></g><g transform="translate(-38,-46) scale(1,1)"><rect fill="#C0C0C0" stroke="none" x="295" y="551" width="160" height="44" opacity="0.2"></rect></g><g transform="translate(-38,-46) scale(1,1)"><rect fill="#e2e2e2" stroke="none" x="288" y="544" width="160" height="44"></rect></g><g transform="translate(-38,-46) scale(1,1)"><path fill="none" stroke="#000000" d="M 288 544 L 448 544 L 448 588 L 288 588 L 288 544 Z Z" stroke-miterlimit="10"></path></g><g transform="translate(-38,-46) scale(1,1)"><path fill="none" stroke="#000000" d="M 288 569 L 448 569" stroke-miterlimit="10"></path></g><g transform="translate(-38,-46) scale(1,1)"><path fill="none" stroke="#000000" d="M 288 579 L 448 579" stroke-miterlimit="10"></path></g><g transform="translate(-38,-46) scale(1,1)"><g><path fill="none" stroke="none"></path><text fill="#000000" stroke="none" font-family="Arial" font-size="13px" font-style="normal" font-weight="bold" text-decoration="none" x="301.5" y="563.5">ExamServiceResource</text></g></g><g transform="translate(-38,-46) scale(1,1)"><rect fill="#C0C0C0" stroke="none" x="55" y="727" width="316.8" height="15" opacity="0.2"></rect></g><g transform="translate(-38,-46) scale(1,1)"><rect fill="#C0C0C0" stroke="none" x="55" y="741" width="792" height="266" opacity="0.2"></rect></g><g transform="translate(-38,-46) scale(1,1)"><rect fill="#ffffff" stroke="none" x="48" y="735" width="792" height="265"></rect></g><g transform="translate(-38,-46) scale(1,1)"><path fill="none" stroke="#000000" d="M 48 735 L 840 735 L 840 1000 L 48 1000 L 48 735 Z Z" stroke-miterlimit="10"></path></g><g transform="translate(-38,-46) scale(1,1)"><rect fill="#ffffff" stroke="none" x="48" y="720" width="316.8" height="15"></rect></g><g transform="translate(-38,-46) scale(1,1)"><path fill="none" stroke="#000000" d="M 48 720 L 364.8 720 L 364.8 735 L 48 735 L 48 720 Z Z" stroke-miterlimit="10"></path></g><g transform="translate(-38,-46) scale(1,1)"><rect fill="#ffffff" stroke="none" x="48" y="734" width="792" height="266"></rect></g><g transform="translate(-38,-46) scale(1,1)"><path fill="none" stroke="#000000" d="M 48 734 L 840 734 L 840 1000 L 48 1000 L 48 734 Z Z" stroke-miterlimit="10"></path></g><g transform="translate(-38,-46) scale(1,1)"><g><path fill="none" stroke="none"></path><text fill="#000000" stroke="none" font-family="Arial" font-size="13px" font-style="normal" font-weight="bold" text-decoration="none" x="418" y="754.5">business</text></g></g><g transform="translate(-38,-46) scale(1,1)"><path fill="none" stroke="#000000" d="M 376 588 L 376 832" stroke-miterlimit="10" stroke-dasharray="3"></path></g><g transform="translate(-38,-46) scale(1,1)"><path fill="none" stroke="#000000" d="M 371.790482243984 821.8373251423759 L 376 832 L 380.209517756016 821.8373251423759" stroke-miterlimit="10"></path></g><g transform="translate(-38,-46) scale(1,1)"><rect fill="#C0C0C0" stroke="none" x="623" y="1095" width="169.60000000000002" height="15" opacity="0.2"></rect></g><g transform="translate(-38,-46) scale(1,1)"><rect fill="#C0C0C0" stroke="none" x="623" y="1109" width="424" height="178" opacity="0.2"></rect></g><g transform="translate(-38,-46) scale(1,1)"><rect fill="#ffffff" stroke="none" x="616" y="1103" width="424" height="177"></rect></g><g transform="translate(-38,-46) scale(1,1)"><path fill="none" stroke="#000000" d="M 616 1103 L 1040 1103 L 1040 1280 L 616 1280 L 616 1103 Z Z" stroke-miterlimit="10"></path></g><g transform="translate(-38,-46) scale(1,1)"><rect fill="#ffffff" stroke="none" x="616" y="1088" width="169.60000000000002" height="15"></rect></g><g transform="translate(-38,-46) scale(1,1)"><path fill="none" stroke="#000000" d="M 616 1088 L 785.6 1088 L 785.6 1103 L 616 1103 L 616 1088 Z Z" stroke-miterlimit="10"></path></g><g transform="translate(-38,-46) scale(1,1)"><rect fill="#ffffff" stroke="none" x="616" y="1102" width="424" height="178"></rect></g><g transform="translate(-38,-46) scale(1,1)"><path fill="none" stroke="#000000" d="M 616 1102 L 1040 1102 L 1040 1280 L 616 1280 L 616 1102 Z Z" stroke-miterlimit="10"></path></g><g transform="translate(-38,-46) scale(1,1)"><g><path fill="none" stroke="none"></path><text fill="#000000" stroke="none" font-family="Arial" font-size="13px" font-style="normal" font-weight="bold" text-decoration="none" x="812" y="1122.5">exam</text></g></g><g transform="translate(-38,-46) scale(1,1)"><rect fill="#C0C0C0" stroke="none" x="647" y="1135" width="70" height="44" opacity="0.2"></rect></g><g transform="translate(-38,-46) scale(1,1)"><rect fill="#ffffff" stroke="none" x="640" y="1128" width="70" height="44"></rect></g><g transform="translate(-38,-46) scale(1,1)"><path fill="none" stroke="#000000" d="M 640 1128 L 710 1128 L 710 1172 L 640 1172 L 640 1128 Z Z" stroke-miterlimit="10"></path></g><g transform="translate(-38,-46) scale(1,1)"><path fill="none" stroke="#000000" d="M 640 1153 L 710 1153" stroke-miterlimit="10"></path></g><g transform="translate(-38,-46) scale(1,1)"><path fill="none" stroke="#000000" d="M 640 1163 L 710 1163" stroke-miterlimit="10"></path></g><g transform="translate(-38,-46) scale(1,1)"><g><path fill="none" stroke="none"></path><text fill="#000000" stroke="none" font-family="Arial" font-size="13px" font-style="normal" font-weight="bold" text-decoration="none" x="646.5" y="1147.5">ExamDao</text></g></g><g transform="translate(-38,-46) scale(1,1)"><path fill="none" stroke="#000000" d="M 432 940 L 675 940 L 675 1128" stroke-miterlimit="10" stroke-dasharray="3"></path></g><g transform="translate(-38,-46) scale(1,1)"><path fill="none" stroke="#000000" d="M 670.790482243984 1117.837325142376 L 675 1128 L 679.209517756016 1117.837325142376" stroke-miterlimit="10"></path></g><g transform="translate(-38,-46) scale(1,1)"><rect fill="#C0C0C0" stroke="none" x="647" y="1199" width="98" height="44" opacity="0.2"></rect></g><g transform="translate(-38,-46) scale(1,1)"><rect fill="#ffffff" stroke="none" x="640" y="1192" width="98" height="44"></rect></g><g transform="translate(-38,-46) scale(1,1)"><path fill="none" stroke="#000000" d="M 640 1192 L 738 1192 L 738 1236 L 640 1236 L 640 1192 Z Z" stroke-miterlimit="10"></path></g><g transform="translate(-38,-46) scale(1,1)"><path fill="none" stroke="#000000" d="M 640 1217 L 738 1217" stroke-miterlimit="10"></path></g><g transform="translate(-38,-46) scale(1,1)"><path fill="none" stroke="#000000" d="M 640 1227 L 738 1227" stroke-miterlimit="10"></path></g><g transform="translate(-38,-46) scale(1,1)"><g><path fill="none" stroke="none"></path><text fill="#000000" stroke="none" font-family="Arial" font-size="13px" font-style="normal" font-weight="bold" text-decoration="none" x="648" y="1211.5">ExamDaoImpl</text></g></g><g transform="translate(-38,-46) scale(1,1)"><rect fill="#C0C0C0" stroke="none" x="55" y="1343" width="416" height="15" opacity="0.2"></rect></g><g transform="translate(-38,-46) scale(1,1)"><rect fill="#C0C0C0" stroke="none" x="55" y="1357" width="1040" height="218" opacity="0.2"></rect></g><g transform="translate(-38,-46) scale(1,1)"><rect fill="#ffffff" stroke="none" x="48" y="1351" width="1040" height="217"></rect></g><g transform="translate(-38,-46) scale(1,1)"><path fill="none" stroke="#000000" d="M 48 1351 L 1088 1351 L 1088 1568 L 48 1568 L 48 1351 Z Z" stroke-miterlimit="10"></path></g><g transform="translate(-38,-46) scale(1,1)"><rect fill="#ffffff" stroke="none" x="48" y="1336" width="416" height="15"></rect></g><g transform="translate(-38,-46) scale(1,1)"><path fill="none" stroke="#000000" d="M 48 1336 L 464 1336 L 464 1351 L 48 1351 L 48 1336 Z Z" stroke-miterlimit="10"></path></g><g transform="translate(-38,-46) scale(1,1)"><rect fill="#ffffff" stroke="none" x="48" y="1350" width="1040" height="218"></rect></g><g transform="translate(-38,-46) scale(1,1)"><path fill="none" stroke="#000000" d="M 48 1350 L 1088 1350 L 1088 1568 L 48 1568 L 48 1350 Z Z" stroke-miterlimit="10"></path></g><g transform="translate(-38,-46) scale(1,1)"><g><path fill="none" stroke="none"></path><text fill="#000000" stroke="none" font-family="Arial" font-size="13px" font-style="normal" font-weight="bold" text-decoration="none" x="547" y="1370.5">domain</text></g></g><g transform="translate(-38,-46) scale(1,1)"><path fill="none" stroke="#000000" d="M 920 1280 L 920 1336" stroke-miterlimit="10" stroke-dasharray="3"></path></g><g transform="translate(-38,-46) scale(1,1)"><path fill="none" stroke="#000000" d="M 915.790482243984 1325.837325142376 L 920 1336 L 924.209517756016 1325.837325142376" stroke-miterlimit="10"></path></g><g transform="translate(-38,-46) scale(1,1)"><path fill="none" stroke="#000000" d="M 531 688 L 531 720" stroke-miterlimit="10" stroke-dasharray="3"></path></g><g transform="translate(-38,-46) scale(1,1)"><path fill="none" stroke="#000000" d="M 526.790482243984 709.8373251423759 L 531 720 L 535.209517756016 709.8373251423759" stroke-miterlimit="10"></path></g><g transform="translate(-38,-46) scale(1,1)"><path fill="none" stroke="#000000" d="M 552 1000 L 552 1048" stroke-miterlimit="10" stroke-dasharray="3"></path></g><g transform="translate(-38,-46) scale(1,1)"><path fill="none" stroke="#000000" d="M 547.790482243984 1037.837325142376 L 552 1048 L 556.209517756016 1037.837325142376" stroke-miterlimit="10"></path></g><g transform="translate(-38,-46) scale(1,1)"><path fill="none" stroke="#000000" d="M 656 1296 L 656 1608" stroke-miterlimit="10" stroke-dasharray="3"></path></g><g transform="translate(-38,-46) scale(1,1)"><path fill="none" stroke="#000000" d="M 651.790482243984 1597.837325142376 L 656 1608 L 660.209517756016 1597.837325142376" stroke-miterlimit="10"></path></g><g transform="translate(-38,-46) scale(1,1)"><rect fill="#C0C0C0" stroke="none" x="239" y="143" width="76.80000000000001" height="15" opacity="0.2"></rect></g><g transform="translate(-38,-46) scale(1,1)"><rect fill="#C0C0C0" stroke="none" x="239" y="157" width="192" height="138" opacity="0.2"></rect></g><g transform="translate(-38,-46) scale(1,1)"><rect fill="#ffffff" stroke="none" x="232" y="151" width="192" height="137"></rect></g><g transform="translate(-38,-46) scale(1,1)"><path fill="none" stroke="#000000" d="M 232 151 L 424 151 L 424 288 L 232 288 L 232 151 Z Z" stroke-miterlimit="10"></path></g><g transform="translate(-38,-46) scale(1,1)"><rect fill="#ffffff" stroke="none" x="232" y="136" width="76.80000000000001" height="15"></rect></g><g transform="translate(-38,-46) scale(1,1)"><path fill="none" stroke="#000000" d="M 232 136 L 308.8 136 L 308.8 151 L 232 151 L 232 136 Z Z" stroke-miterlimit="10"></path></g><g transform="translate(-38,-46) scale(1,1)"><rect fill="#ffffff" stroke="none" x="232" y="150" width="192" height="138"></rect></g><g transform="translate(-38,-46) scale(1,1)"><path fill="none" stroke="#000000" d="M 232 150 L 424 150 L 424 288 L 232 288 L 232 150 Z Z" stroke-miterlimit="10"></path></g><g transform="translate(-38,-46) scale(1,1)"><g><path fill="none" stroke="none"></path><text fill="#000000" stroke="none" font-family="Arial" font-size="13px" font-style="normal" font-weight="bold" text-decoration="none" x="301.5" y="170.5">controller</text></g></g><g transform="translate(-38,-46) scale(1,1)"><path fill="none" stroke="#000000" d="M 185 160 L 232 160" stroke-miterlimit="10" stroke-dasharray="3"></path></g><g transform="translate(-38,-46) scale(1,1)"><path fill="none" stroke="#000000" d="M 221.83732514237585 164.209517756016 L 232 160 L 221.83732514237585 155.790482243984" stroke-miterlimit="10"></path></g><g transform="translate(-38,-46) scale(1,1)"><path fill="none" stroke="#000000" d="M 424 160 L 744 160" stroke-miterlimit="10" stroke-dasharray="3"></path></g><g transform="translate(-38,-46) scale(1,1)"><path fill="none" stroke="#000000" d="M 733.8373251423759 164.209517756016 L 744 160 L 733.8373251423758 155.790482243984" stroke-miterlimit="10"></path></g><g transform="translate(-38,-46) scale(1,1)"><path fill="none" stroke="#000000" d="M 323 288 L 323 504" stroke-miterlimit="10" stroke-dasharray="3"></path></g><g transform="translate(-38,-46) scale(1,1)"><path fill="none" stroke="#000000" d="M 318.790482243984 493.83732514237585 L 323 504 L 327.209517756016 493.83732514237585" stroke-miterlimit="10"></path></g><g transform="translate(-38,-46) scale(1,1)"><rect fill="#C0C0C0" stroke="none" x="751" y="135" width="28.399999999999977" height="15" opacity="0.2"></rect></g><g transform="translate(-38,-46) scale(1,1)"><rect fill="#C0C0C0" stroke="none" x="751" y="149" width="71" height="50" opacity="0.2"></rect></g><g transform="translate(-38,-46) scale(1,1)"><rect fill="#ffffff" stroke="none" x="744" y="143" width="71" height="49"></rect></g><g transform="translate(-38,-46) scale(1,1)"><path fill="none" stroke="#000000" d="M 744 143 L 815 143 L 815 192 L 744 192 L 744 143 Z Z" stroke-miterlimit="10"></path></g><g transform="translate(-38,-46) scale(1,1)"><rect fill="#ffffff" stroke="none" x="744" y="128" width="28.399999999999977" height="15"></rect></g><g transform="translate(-38,-46) scale(1,1)"><path fill="none" stroke="#000000" d="M 744 128 L 772.4 128 L 772.4 143 L 744 143 L 744 128 Z Z" stroke-miterlimit="10"></path></g><g transform="translate(-38,-46) scale(1,1)"><rect fill="#ffffff" stroke="none" x="744" y="142" width="71" height="50"></rect></g><g transform="translate(-38,-46) scale(1,1)"><path fill="none" stroke="#000000" d="M 744 142 L 815 142 L 815 192 L 744 192 L 744 142 Z Z" stroke-miterlimit="10"></path></g><g transform="translate(-38,-46) scale(1,1)"><g><path fill="none" stroke="none"></path><text fill="#000000" stroke="none" font-family="Arial" font-size="13px" font-style="normal" font-weight="bold" text-decoration="none" x="771" y="162.5">util</text></g></g><g transform="translate(-38,-46) scale(1,1)"><rect fill="#C0C0C0" stroke="none" x="559" y="295" width="41.60000000000002" height="15" opacity="0.2"></rect></g><g transform="translate(-38,-46) scale(1,1)"><rect fill="#C0C0C0" stroke="none" x="559" y="309" width="104" height="74" opacity="0.2"></rect></g><g transform="translate(-38,-46) scale(1,1)"><rect fill="#ffffff" stroke="none" x="552" y="303" width="104" height="73"></rect></g><g transform="translate(-38,-46) scale(1,1)"><path fill="none" stroke="#000000" d="M 552 303 L 656 303 L 656 376 L 552 376 L 552 303 Z Z" stroke-miterlimit="10"></path></g><g transform="translate(-38,-46) scale(1,1)"><rect fill="#ffffff" stroke="none" x="552" y="288" width="41.60000000000002" height="15"></rect></g><g transform="translate(-38,-46) scale(1,1)"><path fill="none" stroke="#000000" d="M 552 288 L 593.6 288 L 593.6 303 L 552 303 L 552 288 Z Z" stroke-miterlimit="10"></path></g><g transform="translate(-38,-46) scale(1,1)"><rect fill="#ffffff" stroke="none" x="552" y="302" width="104" height="74"></rect></g><g transform="translate(-38,-46) scale(1,1)"><path fill="none" stroke="#000000" d="M 552 302 L 656 302 L 656 376 L 552 376 L 552 302 Z Z" stroke-miterlimit="10"></path></g><g transform="translate(-38,-46) scale(1,1)"><g><path fill="none" stroke="none"></path><text fill="#000000" stroke="none" font-family="Arial" font-size="13px" font-style="normal" font-weight="bold" text-decoration="none" x="586.5" y="322.5">model</text></g></g><g transform="translate(-38,-46) scale(1,1)"><path fill="none" stroke="#000000" d="M 425 254 L 551 309" stroke-miterlimit="10" stroke-dasharray="3"></path></g><g transform="translate(-38,-46) scale(1,1)"><path fill="none" stroke="#000000" d="M 540.0019601032777 308.79235022247576 L 551 309 L 543.3700419750668 301.07638084346826" stroke-miterlimit="10"></path></g><g transform="translate(-38,-46) scale(1,1)"><rect fill="#C0C0C0" stroke="none" x="751" y="215" width="28.799999999999955" height="15" opacity="0.2"></rect></g><g transform="translate(-38,-46) scale(1,1)"><rect fill="#C0C0C0" stroke="none" x="751" y="229" width="72" height="58" opacity="0.2"></rect></g><g transform="translate(-38,-46) scale(1,1)"><rect fill="#ffffff" stroke="none" x="744" y="223" width="72" height="57"></rect></g><g transform="translate(-38,-46) scale(1,1)"><path fill="none" stroke="#000000" d="M 744 223 L 816 223 L 816 280 L 744 280 L 744 223 Z Z" stroke-miterlimit="10"></path></g><g transform="translate(-38,-46) scale(1,1)"><rect fill="#ffffff" stroke="none" x="744" y="208" width="28.799999999999955" height="15"></rect></g><g transform="translate(-38,-46) scale(1,1)"><path fill="none" stroke="#000000" d="M 744 208 L 772.8 208 L 772.8 223 L 744 223 L 744 208 Z Z" stroke-miterlimit="10"></path></g><g transform="translate(-38,-46) scale(1,1)"><rect fill="#ffffff" stroke="none" x="744" y="222" width="72" height="58"></rect></g><g transform="translate(-38,-46) scale(1,1)"><path fill="none" stroke="#000000" d="M 744 222 L 816 222 L 816 280 L 744 280 L 744 222 Z Z" stroke-miterlimit="10"></path></g><g transform="translate(-38,-46) scale(1,1)"><g><path fill="none" stroke="none"></path><text fill="#000000" stroke="none" font-family="Arial" font-size="13px" font-style="normal" font-weight="bold" text-decoration="none" x="758" y="242.5">webapp</text></g></g><g transform="translate(-38,-46) scale(1,1)"><rect fill="#C0C0C0" stroke="none" x="879" y="815" width="86.39999999999998" height="15" opacity="0.2"></rect></g><g transform="translate(-38,-46) scale(1,1)"><rect fill="#C0C0C0" stroke="none" x="879" y="829" width="216" height="178" opacity="0.2"></rect></g><g transform="translate(-38,-46) scale(1,1)"><rect fill="#e2e2e2" stroke="none" x="872" y="823" width="216" height="177"></rect></g><g transform="translate(-38,-46) scale(1,1)"><path fill="none" stroke="#000000" d="M 872 823 L 1088 823 L 1088 1000 L 872 1000 L 872 823 Z Z" stroke-miterlimit="10"></path></g><g transform="translate(-38,-46) scale(1,1)"><rect fill="#e2e2e2" stroke="none" x="872" y="808" width="86.39999999999998" height="15"></rect></g><g transform="translate(-38,-46) scale(1,1)"><path fill="none" stroke="#000000" d="M 872 808 L 958.4 808 L 958.4 823 L 872 823 L 872 808 Z Z" stroke-miterlimit="10"></path></g><g transform="translate(-38,-46) scale(1,1)"><rect fill="#e2e2e2" stroke="none" x="872" y="822" width="216" height="178"></rect></g><g transform="translate(-38,-46) scale(1,1)"><path fill="none" stroke="#000000" d="M 872 822 L 1088 822 L 1088 1000 L 872 1000 L 872 822 Z Z" stroke-miterlimit="10"></path></g><g transform="translate(-38,-46) scale(1,1)"><g><path fill="none" stroke="none"></path><text fill="#000000" stroke="none" font-family="Arial" font-size="13px" font-style="normal" font-weight="bold" text-decoration="none" x="948.5" y="842.5">messaging</text></g></g><g transform="translate(-38,-46) scale(1,1)"><path fill="none" stroke="#000000" d="M 432 920 L 912 920" stroke-miterlimit="10" stroke-dasharray="3"></path></g><g transform="translate(-38,-46) scale(1,1)"><path fill="none" stroke="#000000" d="M 901.8373251423759 924.209517756016 L 912 920 L 901.8373251423758 915.790482243984" stroke-miterlimit="10"></path></g><g transform="translate(-38,-46) scale(1,1)"><rect fill="#C0C0C0" stroke="none" x="919" y="895" width="48.39999999999998" height="15" opacity="0.2"></rect></g><g transform="translate(-38,-46) scale(1,1)"><rect fill="#C0C0C0" stroke="none" x="919" y="909" width="121" height="38" opacity="0.2"></rect></g><g transform="translate(-38,-46) scale(1,1)"><rect fill="#e2e2e2" stroke="none" x="912" y="903" width="121" height="37"></rect></g><g transform="translate(-38,-46) scale(1,1)"><path fill="none" stroke="#000000" d="M 912 903 L 1033 903 L 1033 940 L 912 940 L 912 903 Z Z" stroke-miterlimit="10"></path></g><g transform="translate(-38,-46) scale(1,1)"><rect fill="#e2e2e2" stroke="none" x="912" y="888" width="48.39999999999998" height="15"></rect></g><g transform="translate(-38,-46) scale(1,1)"><path fill="none" stroke="#000000" d="M 912 888 L 960.4 888 L 960.4 903 L 912 903 L 912 888 Z Z" stroke-miterlimit="10"></path></g><g transform="translate(-38,-46) scale(1,1)"><rect fill="#e2e2e2" stroke="none" x="912" y="902" width="121" height="38"></rect></g><g transform="translate(-38,-46) scale(1,1)"><path fill="none" stroke="#000000" d="M 912 902 L 1033 902 L 1033 940 L 912 940 L 912 902 Z Z" stroke-miterlimit="10"></path></g><g transform="translate(-38,-46) scale(1,1)"><g><path fill="none" stroke="none"></path><text fill="#000000" stroke="none" font-family="Arial" font-size="13px" font-style="normal" font-weight="normal" text-decoration="none" x="946.5" y="920.5">«Queue»</text></g></g><g transform="translate(-38,-46) scale(1,1)"><g><path fill="none" stroke="none"></path><text fill="#000000" stroke="none" font-family="Arial" font-size="13px" font-style="normal" font-weight="bold" text-decoration="none" x="922" y="935.5">Benutzeraktionen</text></g></g><g transform="translate(-38,-46) scale(1,1)"><path fill="none" stroke="#000000" d="M 496 960 L 496 1336" stroke-miterlimit="10" stroke-dasharray="3"></path></g><g transform="translate(-38,-46) scale(1,1)"><path fill="none" stroke="#000000" d="M 491.790482243984 1325.837325142376 L 496 1336 L 500.209517756016 1325.837325142376" stroke-miterlimit="10"></path></g><g transform="translate(-38,-46) scale(1,1)"><rect fill="#C0C0C0" stroke="none" x="111" y="1383" width="49" height="44" opacity="0.2"></rect></g><g transform="translate(-38,-46) scale(1,1)"><rect fill="#ffffff" stroke="none" x="104" y="1376" width="49" height="44"></rect></g><g transform="translate(-38,-46) scale(1,1)"><path fill="none" stroke="#000000" d="M 104 1376 L 153 1376 L 153 1420 L 104 1420 L 104 1376 Z Z" stroke-miterlimit="10"></path></g><g transform="translate(-38,-46) scale(1,1)"><path fill="none" stroke="#000000" d="M 104 1401 L 153 1401" stroke-miterlimit="10"></path></g><g transform="translate(-38,-46) scale(1,1)"><path fill="none" stroke="#000000" d="M 104 1411 L 153 1411" stroke-miterlimit="10"></path></g><g transform="translate(-38,-46) scale(1,1)"><g><path fill="none" stroke="none"></path><text fill="#000000" stroke="none" font-family="Arial" font-size="13px" font-style="normal" font-weight="bold" text-decoration="none" x="111.5" y="1395.5">Exam</text></g></g><g transform="translate(-38,-46) scale(1,1)"><path fill="none" stroke="#000000" d="M 712 1236 L 712 1608" stroke-miterlimit="10" stroke-dasharray="3"></path></g><g transform="translate(-38,-46) scale(1,1)"><path fill="none" stroke="#000000" d="M 707.790482243984 1597.837325142376 L 712 1608 L 716.209517756016 1597.837325142376" stroke-miterlimit="10"></path></g><g transform="translate(-38,-46) scale(1,1)"><path fill="none" stroke="#000000" d="M 424 241 L 744 241" stroke-miterlimit="10" stroke-dasharray="3"></path></g><g transform="translate(-38,-46) scale(1,1)"><path fill="none" stroke="#000000" d="M 733.8373251423759 245.209517756016 L 744 241 L 733.8373251423758 236.790482243984" stroke-miterlimit="10"></path></g><g transform="translate(-38,-46) scale(1,1)"><rect fill="#C0C0C0" stroke="none" x="279" y="783" width="169.60000000000002" height="15" opacity="0.2"></rect></g><g transform="translate(-38,-46) scale(1,1)"><rect fill="#C0C0C0" stroke="none" x="279" y="797" width="424" height="170" opacity="0.2"></rect></g><g transform="translate(-38,-46) scale(1,1)"><rect fill="#ffffff" stroke="none" x="272" y="791" width="424" height="169"></rect></g><g transform="translate(-38,-46) scale(1,1)"><path fill="none" stroke="#000000" d="M 272 791 L 696 791 L 696 960 L 272 960 L 272 791 Z Z" stroke-miterlimit="10"></path></g><g transform="translate(-38,-46) scale(1,1)"><rect fill="#ffffff" stroke="none" x="272" y="776" width="169.60000000000002" height="15"></rect></g><g transform="translate(-38,-46) scale(1,1)"><path fill="none" stroke="#000000" d="M 272 776 L 441.6 776 L 441.6 791 L 272 791 L 272 776 Z Z" stroke-miterlimit="10"></path></g><g transform="translate(-38,-46) scale(1,1)"><rect fill="#ffffff" stroke="none" x="272" y="790" width="424" height="170"></rect></g><g transform="translate(-38,-46) scale(1,1)"><path fill="none" stroke="#000000" d="M 272 790 L 696 790 L 696 960 L 272 960 L 272 790 Z Z" stroke-miterlimit="10"></path></g><g transform="translate(-38,-46) scale(1,1)"><g><path fill="none" stroke="none"></path><text fill="#000000" stroke="none" font-family="Arial" font-size="13px" font-style="normal" font-weight="bold" text-decoration="none" x="468" y="810.5">exam</text></g></g><g transform="translate(-38,-46) scale(1,1)"><rect fill="#C0C0C0" stroke="none" x="319" y="839" width="96" height="44" opacity="0.2"></rect></g><g transform="translate(-38,-46) scale(1,1)"><rect fill="#ffffff" stroke="none" x="312" y="832" width="96" height="44"></rect></g><g transform="translate(-38,-46) scale(1,1)"><path fill="none" stroke="#000000" d="M 312 832 L 408 832 L 408 876 L 312 876 L 312 832 Z Z" stroke-miterlimit="10"></path></g><g transform="translate(-38,-46) scale(1,1)"><path fill="none" stroke="#000000" d="M 312 857 L 408 857" stroke-miterlimit="10"></path></g><g transform="translate(-38,-46) scale(1,1)"><path fill="none" stroke="#000000" d="M 312 867 L 408 867" stroke-miterlimit="10"></path></g><g transform="translate(-38,-46) scale(1,1)"><g><path fill="none" stroke="none"></path><text fill="#000000" stroke="none" font-family="Arial" font-size="13px" font-style="normal" font-weight="bold" text-decoration="none" x="321" y="851.5">ExamService</text></g></g><g transform="translate(-38,-46) scale(1,1)"><rect fill="#C0C0C0" stroke="none" x="311" y="903" width="128" height="44" opacity="0.2"></rect></g><g transform="translate(-38,-46) scale(1,1)"><rect fill="#ffffff" stroke="none" x="304" y="896" width="128" height="44"></rect></g><g transform="translate(-38,-46) scale(1,1)"><path fill="none" stroke="#000000" d="M 304 896 L 432 896 L 432 940 L 304 940 L 304 896 Z Z" stroke-miterlimit="10"></path></g><g transform="translate(-38,-46) scale(1,1)"><path fill="none" stroke="#000000" d="M 304 921 L 432 921" stroke-miterlimit="10"></path></g><g transform="translate(-38,-46) scale(1,1)"><path fill="none" stroke="#000000" d="M 304 931 L 432 931" stroke-miterlimit="10"></path></g><g transform="translate(-38,-46) scale(1,1)"><g><path fill="none" stroke="none"></path><text fill="#000000" stroke="none" font-family="Arial" font-size="13px" font-style="normal" font-weight="bold" text-decoration="none" x="316.5" y="915.5">ExamServiceImpl</text></g></g><g transform="translate(-38,-46) scale(1,1)"><rect fill="#C0C0C0" stroke="none" x="103" y="839" width="74" height="44" opacity="0.2"></rect></g><g transform="translate(-38,-46) scale(1,1)"><rect fill="#ffffff" stroke="none" x="96" y="832" width="74" height="44"></rect></g><g transform="translate(-38,-46) scale(1,1)"><path fill="none" stroke="#000000" d="M 96 832 L 170 832 L 170 876 L 96 876 L 96 832 Z Z" stroke-miterlimit="10"></path></g><g transform="translate(-38,-46) scale(1,1)"><path fill="none" stroke="#000000" d="M 96 857 L 170 857" stroke-miterlimit="10"></path></g><g transform="translate(-38,-46) scale(1,1)"><path fill="none" stroke="#000000" d="M 96 867 L 170 867" stroke-miterlimit="10"></path></g><g transform="translate(-38,-46) scale(1,1)"><g><path fill="none" stroke="none"></path><text fill="#000000" stroke="none" font-family="Arial" font-size="13px" font-style="normal" font-weight="bold" text-decoration="none" x="103.5" y="851.5">Entrypoint</text></g></g><g transform="translate(-38,-46) scale(1,1)"><rect fill="#C0C0C0" stroke="none" x="103" y="1167" width="74" height="44" opacity="0.2"></rect></g><g transform="translate(-38,-46) scale(1,1)"><rect fill="#ffffff" stroke="none" x="96" y="1160" width="74" height="44"></rect></g><g transform="translate(-38,-46) scale(1,1)"><path fill="none" stroke="#000000" d="M 96 1160 L 170 1160 L 170 1204 L 96 1204 L 96 1160 Z Z" stroke-miterlimit="10"></path></g><g transform="translate(-38,-46) scale(1,1)"><path fill="none" stroke="#000000" d="M 96 1185 L 170 1185" stroke-miterlimit="10"></path></g><g transform="translate(-38,-46) scale(1,1)"><path fill="none" stroke="#000000" d="M 96 1195 L 170 1195" stroke-miterlimit="10"></path></g><g transform="translate(-38,-46) scale(1,1)"><g><path fill="none" stroke="none"></path><text fill="#000000" stroke="none" font-family="Arial" font-size="13px" font-style="normal" font-weight="bold" text-decoration="none" x="103.5" y="1179.5">Entrypoint</text></g></g><g transform="translate(-38,-46) scale(1,1)"><path fill="none" stroke="#000000" d="M 128 180 L 128 832" stroke-miterlimit="10" stroke-dasharray="3"></path></g><g transform="translate(-38,-46) scale(1,1)"><path fill="none" stroke="#000000" d="M 123.79048224398402 821.8373251423759 L 128 832 L 132.209517756016 821.8373251423759" stroke-miterlimit="10"></path></g><g transform="translate(-38,-46) scale(1,1)"><g><path fill="none" stroke="none"></path><text fill="#000000" stroke="none" font-family="Arial" font-size="13px" font-style="normal" font-weight="normal" text-decoration="none" x="123.5" y="511.5">«initializes»</text></g></g><g transform="translate(-38,-46) scale(1,1)"><path fill="none" stroke="#000000" d="M 128 876 L 128 1160" stroke-miterlimit="10" stroke-dasharray="3"></path></g><g transform="translate(-38,-46) scale(1,1)"><path fill="none" stroke="#000000" d="M 123.79048224398402 1149.837325142376 L 128 1160 L 132.209517756016 1149.837325142376" stroke-miterlimit="10"></path></g><g transform="translate(-38,-46) scale(1,1)"><g><path fill="none" stroke="none"></path><text fill="#000000" stroke="none" font-family="Arial" font-size="13px" font-style="normal" font-weight="normal" text-decoration="none" x="123.5" y="1023.5">«initializes»</text></g></g><g transform="translate(-38,-46) scale(1,1)"><rect fill="#C0C0C0" stroke="none" x="263" y="1095" width="70.39999999999998" height="15" opacity="0.2"></rect></g><g transform="translate(-38,-46) scale(1,1)"><rect fill="#C0C0C0" stroke="none" x="263" y="1109" width="176" height="162" opacity="0.2"></rect></g><g transform="translate(-38,-46) scale(1,1)"><rect fill="#ffffff" stroke="none" x="256" y="1103" width="176" height="161"></rect></g><g transform="translate(-38,-46) scale(1,1)"><path fill="none" stroke="#000000" d="M 256 1103 L 432 1103 L 432 1264 L 256 1264 L 256 1103 Z Z" stroke-miterlimit="10"></path></g><g transform="translate(-38,-46) scale(1,1)"><rect fill="#ffffff" stroke="none" x="256" y="1088" width="70.39999999999998" height="15"></rect></g><g transform="translate(-38,-46) scale(1,1)"><path fill="none" stroke="#000000" d="M 256 1088 L 326.4 1088 L 326.4 1103 L 256 1103 L 256 1088 Z Z" stroke-miterlimit="10"></path></g><g transform="translate(-38,-46) scale(1,1)"><rect fill="#ffffff" stroke="none" x="256" y="1102" width="176" height="162"></rect></g><g transform="translate(-38,-46) scale(1,1)"><path fill="none" stroke="#000000" d="M 256 1102 L 432 1102 L 432 1264 L 256 1264 L 256 1102 Z Z" stroke-miterlimit="10"></path></g><g transform="translate(-38,-46) scale(1,1)"><g><path fill="none" stroke="none"></path><text fill="#000000" stroke="none" font-family="Arial" font-size="13px" font-style="normal" font-weight="bold" text-decoration="none" x="317.5" y="1122.5">migration</text></g></g><g transform="translate(-38,-46) scale(1,1)"><rect fill="#C0C0C0" stroke="none" x="295" y="1159" width="28.399999999999977" height="15" opacity="0.2"></rect></g><g transform="translate(-38,-46) scale(1,1)"><rect fill="#C0C0C0" stroke="none" x="295" y="1173" width="71" height="42" opacity="0.2"></rect></g><g transform="translate(-38,-46) scale(1,1)"><rect fill="#ffffff" stroke="none" x="288" y="1167" width="71" height="41"></rect></g><g transform="translate(-38,-46) scale(1,1)"><path fill="none" stroke="#000000" d="M 288 1167 L 359 1167 L 359 1208 L 288 1208 L 288 1167 Z Z" stroke-miterlimit="10"></path></g><g transform="translate(-38,-46) scale(1,1)"><rect fill="#ffffff" stroke="none" x="288" y="1152" width="28.399999999999977" height="15"></rect></g><g transform="translate(-38,-46) scale(1,1)"><path fill="none" stroke="#000000" d="M 288 1152 L 316.4 1152 L 316.4 1167 L 288 1167 L 288 1152 Z Z" stroke-miterlimit="10"></path></g><g transform="translate(-38,-46) scale(1,1)"><rect fill="#ffffff" stroke="none" x="288" y="1166" width="71" height="42"></rect></g><g transform="translate(-38,-46) scale(1,1)"><path fill="none" stroke="#000000" d="M 288 1166 L 359 1166 L 359 1208 L 288 1208 L 288 1166 Z Z" stroke-miterlimit="10"></path></g><g transform="translate(-38,-46) scale(1,1)"><g><path fill="none" stroke="none"></path><text fill="#000000" stroke="none" font-family="Arial" font-size="13px" font-style="normal" font-weight="bold" text-decoration="none" x="300.5" y="1186.5">patches</text></g></g><g transform="translate(-38,-46) scale(1,1)"><path fill="none" stroke="#000000" d="M 170 1181 L 256 1181" stroke-miterlimit="10" stroke-dasharray="3"></path></g><g transform="translate(-38,-46) scale(1,1)"><path fill="none" stroke="#000000" d="M 245.83732514237585 1185.2095177560159 L 256 1181 L 245.83732514237585 1176.7904822439841" stroke-miterlimit="10"></path></g><g transform="translate(-38,-46) scale(1,1)"><g><path fill="none" stroke="none"></path><text fill="#000000" stroke="none" font-family="Arial" font-size="13px" font-style="normal" font-weight="normal" text-decoration="none" x="190.5" y="1171.5">«uses»</text></g></g></g></svg>