<svg version="1.1" xmlns="http://www.w3.org/2000/svg" xmlns:xlink="http://www.w3.org/1999/xlink" width="692" height="284"><defs></defs><g><g transform="translate(-38,2) scale(1,1)"><path fill="none" stroke="#000000" d="M 48 8 L 720 8 L 720 272 L 48 272 L 48 8" stroke-miterlimit="10"></path></g><g transform="translate(-38,2) scale(1,1)"><path fill="#ffffff" stroke="none" d="M 48 8 L 48 30 L 340 30 L 351 19 L 351 8 L 48 8"></path></g><g transform="translate(-38,2) scale(1,1)"><path fill="none" stroke="#000000" d="M 48 8 L 48 30 L 340 30 L 351 19 L 351 8 L 48 8 L 48 8" stroke-miterlimit="10"></path></g><g transform="translate(-38,2) scale(1,1)"><g><path fill="none" stroke="none"></path><text fill="#000000" stroke="none" font-family="Arial" font-size="13px" font-style="normal" font-weight="normal" text-decoration="none" x="119" y="25.5">Zusammenspiel Programmkonstrukte</text></g></g><g transform="translate(-38,2) scale(1,1)"><g><path fill="none" stroke="none"></path><text fill="#000000" stroke="none" font-family="Arial" font-size="13px" font-style="normal" font-weight="bold" text-decoration="none" x="53" y="25.5">interaction</text></g></g><g transform="translate(-38,2) scale(1,1)"><rect fill="#C0C0C0" stroke="none" x="87" y="47" width="74" height="39" opacity="0.2"></rect></g><g transform="translate(-38,2) scale(1,1)"><rect fill="#ffffff" stroke="none" x="80" y="40" width="74" height="39"></rect></g><g transform="translate(-38,2) scale(1,1)"><path fill="none" stroke="#000000" d="M 80 40 L 154 40 L 154 79 L 80 79 L 80 40 Z Z" stroke-miterlimit="10"></path></g><g transform="translate(-38,2) scale(1,1)"><g><path fill="none" stroke="none"></path><text fill="#000000" stroke="none" font-family="Arial" font-size="13px" font-style="normal" font-weight="bold" text-decoration="none" x="111" y="59.5">UI</text></g></g><g transform="translate(-38,2) scale(1,1)"><path fill="none" stroke="#000000" d="M 118.5 80 L 118.5 239" stroke-miterlimit="10" stroke-dasharray="3"></path></g><g transform="translate(-38,2) scale(1,1)"><rect fill="#C0C0C0" stroke="none" x="247" y="47" width="107" height="39" opacity="0.2"></rect></g><g transform="translate(-38,2) scale(1,1)"><rect fill="#ffffff" stroke="none" x="240" y="40" width="107" height="39"></rect></g><g transform="translate(-38,2) scale(1,1)"><path fill="none" stroke="#000000" d="M 240 40 L 347 40 L 347 79 L 240 79 L 240 40 Z Z" stroke-miterlimit="10"></path></g><g transform="translate(-38,2) scale(1,1)"><g><path fill="none" stroke="none"></path><text fill="#000000" stroke="none" font-family="Arial" font-size="13px" font-style="normal" font-weight="normal" text-decoration="none" x="259.5" y="57.5">«Business»</text></g></g><g transform="translate(-38,2) scale(1,1)"><g><path fill="none" stroke="none"></path><text fill="#000000" stroke="none" font-family="Arial" font-size="13px" font-style="normal" font-weight="bold" text-decoration="none" x="253.5" y="72.5">:ExamService</text></g></g><g transform="translate(-38,2) scale(1,1)"><path fill="none" stroke="#000000" d="M 294.5 80 L 294.5 239" stroke-miterlimit="10" stroke-dasharray="3"></path></g><g transform="translate(-38,2) scale(1,1)"><rect fill="#C0C0C0" stroke="none" x="415" y="47" width="93" height="39" opacity="0.2"></rect></g><g transform="translate(-38,2) scale(1,1)"><rect fill="#ffffff" stroke="none" x="408" y="40" width="93" height="39"></rect></g><g transform="translate(-38,2) scale(1,1)"><path fill="none" stroke="#000000" d="M 408 40 L 501 40 L 501 79 L 408 79 L 408 40 Z Z" stroke-miterlimit="10"></path></g><g transform="translate(-38,2) scale(1,1)"><g><path fill="none" stroke="none"></path><text fill="#000000" stroke="none" font-family="Arial" font-size="13px" font-style="normal" font-weight="normal" text-decoration="none" x="417.5" y="57.5">«Integration»</text></g></g><g transform="translate(-38,2) scale(1,1)"><g><path fill="none" stroke="none"></path><text fill="#000000" stroke="none" font-family="Arial" font-size="13px" font-style="normal" font-weight="bold" text-decoration="none" x="421.5" y="72.5">:ExamDAO</text></g></g><g transform="translate(-38,2) scale(1,1)"><path fill="none" stroke="#000000" d="M 455.5 80 L 455.5 239" stroke-miterlimit="10" stroke-dasharray="3"></path></g><g transform="translate(-38,2) scale(1,1)"><rect fill="#C0C0C0" stroke="none" x="615" y="47" width="78" height="39" opacity="0.2"></rect></g><g transform="translate(-38,2) scale(1,1)"><rect fill="#ffffff" stroke="none" x="608" y="40" width="78" height="39"></rect></g><g transform="translate(-38,2) scale(1,1)"><path fill="none" stroke="#000000" d="M 608 40 L 686 40 L 686 79 L 608 79 L 608 40 Z Z" stroke-miterlimit="10"></path></g><g transform="translate(-38,2) scale(1,1)"><g><path fill="none" stroke="none"></path><text fill="#000000" stroke="none" font-family="Arial" font-size="13px" font-style="normal" font-weight="bold" text-decoration="none" x="619.5" y="59.5">Database</text></g></g><g transform="translate(-38,2) scale(1,1)"><path fill="none" stroke="#000000" d="M 648.5 80 L 648.5 239" stroke-miterlimit="10" stroke-dasharray="3"></path></g><g transform="translate(-38,2) scale(1,1)"><path fill="none" stroke="#000000" d="M 118 104 L 287 104" stroke-miterlimit="10"></path></g><g transform="translate(-38,2) scale(1,1)"><path fill="#000000" stroke="none" d="M 276.83732514237585 108.20951775601598 L 287 104 L 276.83732514237585 99.79048224398402"></path></g><g transform="translate(-38,2) scale(1,1)"><path fill="none" stroke="#000000" d="M 276.83732514237585 108.20951775601598 L 287 104 L 276.83732514237585 99.79048224398402 L 276.83732514237585 108.20951775601598" stroke-miterlimit="10"></path></g><g transform="translate(-38,2) scale(1,1)"><g><path fill="none" stroke="none"></path><text fill="#000000" stroke="none" font-family="Arial" font-size="13px" font-style="normal" font-weight="normal" text-decoration="none" x="129.5" y="100.5">1 : showPendingExams()</text></g></g><g transform="translate(-38,2) scale(1,1)"><rect fill="#ffffff" stroke="none" x="287" y="104" width="13" height="55"></rect></g><g transform="translate(-38,2) scale(1,1)"><path fill="none" stroke="#000000" d="M 287 104 L 300 104 L 300 159 L 287 159 L 287 104 Z Z" stroke-miterlimit="10"></path></g><g transform="translate(-38,2) scale(1,1)"><path fill="none" stroke="#000000" d="M 300 112 L 448 112" stroke-miterlimit="10"></path></g><g transform="translate(-38,2) scale(1,1)"><path fill="#000000" stroke="none" d="M 437.83732514237585 116.20951775601598 L 448 112 L 437.83732514237585 107.79048224398402"></path></g><g transform="translate(-38,2) scale(1,1)"><path fill="none" stroke="#000000" d="M 437.83732514237585 116.20951775601598 L 448 112 L 437.83732514237585 107.79048224398402 L 437.83732514237585 116.20951775601598" stroke-miterlimit="10"></path></g><g transform="translate(-38,2) scale(1,1)"><g><path fill="none" stroke="none"></path><text fill="#000000" stroke="none" font-family="Arial" font-size="13px" font-style="normal" font-weight="normal" text-decoration="none" x="327.5" y="108.5">2 : loadExams()</text></g></g><g transform="translate(-38,2) scale(1,1)"><rect fill="#ffffff" stroke="none" x="448" y="112" width="13" height="40"></rect></g><g transform="translate(-38,2) scale(1,1)"><path fill="none" stroke="#000000" d="M 448 112 L 461 112 L 461 152 L 448 152 L 448 112 Z Z" stroke-miterlimit="10"></path></g><g transform="translate(-38,2) scale(1,1)"><path fill="none" stroke="#000000" d="M 461 123 L 641 123" stroke-miterlimit="10"></path></g><g transform="translate(-38,2) scale(1,1)"><path fill="#000000" stroke="none" d="M 630.8373251423759 127.20951775601598 L 641 123 L 630.8373251423758 118.79048224398402"></path></g><g transform="translate(-38,2) scale(1,1)"><path fill="none" stroke="#000000" d="M 630.8373251423759 127.20951775601598 L 641 123 L 630.8373251423758 118.79048224398402 L 630.8373251423759 127.20951775601598" stroke-miterlimit="10"></path></g><g transform="translate(-38,2) scale(1,1)"><g><path fill="none" stroke="none"></path><text fill="#000000" stroke="none" font-family="Arial" font-size="13px" font-style="normal" font-weight="normal" text-decoration="none" x="527.5" y="119.5">3 : find()</text></g></g><g transform="translate(-38,2) scale(1,1)"><rect fill="#ffffff" stroke="none" x="641" y="123" width="13" height="28"></rect></g><g transform="translate(-38,2) scale(1,1)"><path fill="none" stroke="#000000" d="M 641 123 L 654 123 L 654 151 L 641 151 L 641 123 Z Z" stroke-miterlimit="10"></path></g><g transform="translate(-38,2) scale(1,1)"><path fill="none" stroke="#000000" d="M 641 136 L 461 136" stroke-miterlimit="10" stroke-dasharray="3"></path></g><g transform="translate(-38,2) scale(1,1)"><path fill="none" stroke="#000000" d="M 471.16267485762415 131.790482243984 L 461 136 L 471.16267485762415 140.209517756016" stroke-miterlimit="10"></path></g><g transform="translate(-38,2) scale(1,1)"><g><path fill="none" stroke="none"></path><text fill="#000000" stroke="none" font-family="Arial" font-size="13px" font-style="normal" font-weight="normal" text-decoration="none" x="540.5" y="152.5">4 : </text></g></g><g transform="translate(-38,2) scale(1,1)"><path fill="none" stroke="#000000" d="M 448 144 L 300 144" stroke-miterlimit="10" stroke-dasharray="3"></path></g><g transform="translate(-38,2) scale(1,1)"><path fill="none" stroke="#000000" d="M 310.16267485762415 139.790482243984 L 300 144 L 310.16267485762415 148.209517756016" stroke-miterlimit="10"></path></g><g transform="translate(-38,2) scale(1,1)"><g><path fill="none" stroke="none"></path><text fill="#000000" stroke="none" font-family="Arial" font-size="13px" font-style="normal" font-weight="normal" text-decoration="none" x="363.5" y="160.5">5 : </text></g></g><g transform="translate(-38,2) scale(1,1)"><path fill="none" stroke="#000000" d="M 287 154 L 118 154" stroke-miterlimit="10" stroke-dasharray="3"></path></g><g transform="translate(-38,2) scale(1,1)"><path fill="none" stroke="#000000" d="M 128.16267485762415 149.790482243984 L 118 154 L 128.16267485762415 158.209517756016" stroke-miterlimit="10"></path></g><g transform="translate(-38,2) scale(1,1)"><g><path fill="none" stroke="none"></path><text fill="#000000" stroke="none" font-family="Arial" font-size="13px" font-style="normal" font-weight="normal" text-decoration="none" x="191.5" y="170.5">6 : </text></g></g></g></svg>