<svg version="1.1" xmlns="http://www.w3.org/2000/svg" xmlns:xlink="http://www.w3.org/1999/xlink" width="1092" height="284"><defs></defs><g><g transform="translate(-30,2) scale(1,1)"><path fill="none" stroke="#000000" d="M 48 8 L 1112 8 L 1112 272 L 48 272 L 48 8" stroke-miterlimit="10"></path></g><g transform="translate(-30,2) scale(1,1)"><path fill="#ffffff" stroke="none" d="M 48 8 L 48 30 L 340 30 L 351 19 L 351 8 L 48 8"></path></g><g transform="translate(-30,2) scale(1,1)"><path fill="none" stroke="#000000" d="M 48 8 L 48 30 L 340 30 L 351 19 L 351 8 L 48 8 L 48 8" stroke-miterlimit="10"></path></g><g transform="translate(-30,2) scale(1,1)"><g><path fill="none" stroke="none"></path><text fill="#000000" stroke="none" font-family="Arial" font-size="13px" font-style="normal" font-weight="normal" text-decoration="none" x="119" y="25.5">Zusammenspiel Programmkonstrukte</text></g></g><g transform="translate(-30,2) scale(1,1)"><g><path fill="none" stroke="none"></path><text fill="#000000" stroke="none" font-family="Arial" font-size="13px" font-style="normal" font-weight="bold" text-decoration="none" x="53" y="25.5">interaction</text></g></g><g transform="translate(-30,2) scale(1,1)"><rect fill="#C0C0C0" stroke="none" x="303" y="47" width="87" height="39" opacity="0.2"></rect></g><g transform="translate(-30,2) scale(1,1)"><rect fill="#ffffff" stroke="none" x="296" y="40" width="87" height="39"></rect></g><g transform="translate(-30,2) scale(1,1)"><path fill="none" stroke="#000000" d="M 296 40 L 383 40 L 383 79 L 296 79 L 296 40 Z Z" stroke-miterlimit="10"></path></g><g transform="translate(-30,2) scale(1,1)"><g><path fill="none" stroke="none"></path><text fill="#000000" stroke="none" font-family="Arial" font-size="13px" font-style="normal" font-weight="normal" text-decoration="none" x="318" y="57.5">«httml»</text></g></g><g transform="translate(-30,2) scale(1,1)"><g><path fill="none" stroke="none"></path><text fill="#000000" stroke="none" font-family="Arial" font-size="13px" font-style="normal" font-weight="bold" text-decoration="none" x="308.5" y="72.5">Dashboard</text></g></g><g transform="translate(-30,2) scale(1,1)"><path fill="none" stroke="#000000" d="M 340.5 80 L 340.5 239" stroke-miterlimit="10" stroke-dasharray="3"></path></g><g transform="translate(-30,2) scale(1,1)"><rect fill="#C0C0C0" stroke="none" x="527" y="47" width="107" height="39" opacity="0.2"></rect></g><g transform="translate(-30,2) scale(1,1)"><rect fill="#ffffff" stroke="none" x="520" y="40" width="107" height="39"></rect></g><g transform="translate(-30,2) scale(1,1)"><path fill="none" stroke="#000000" d="M 520 40 L 627 40 L 627 79 L 520 79 L 520 40 Z Z" stroke-miterlimit="10"></path></g><g transform="translate(-30,2) scale(1,1)"><g><path fill="none" stroke="none"></path><text fill="#000000" stroke="none" font-family="Arial" font-size="13px" font-style="normal" font-weight="normal" text-decoration="none" x="542" y="57.5">«interface»</text></g></g><g transform="translate(-30,2) scale(1,1)"><g><path fill="none" stroke="none"></path><text fill="#000000" stroke="none" font-family="Arial" font-size="13px" font-style="normal" font-weight="bold" text-decoration="none" x="535.5" y="72.5">ExamService</text></g></g><g transform="translate(-30,2) scale(1,1)"><path fill="none" stroke="#000000" d="M 574.5 80 L 574.5 239" stroke-miterlimit="10" stroke-dasharray="3"></path></g><g transform="translate(-30,2) scale(1,1)"><rect fill="#C0C0C0" stroke="none" x="711" y="47" width="93" height="39" opacity="0.2"></rect></g><g transform="translate(-30,2) scale(1,1)"><rect fill="#ffffff" stroke="none" x="704" y="40" width="93" height="39"></rect></g><g transform="translate(-30,2) scale(1,1)"><path fill="none" stroke="#000000" d="M 704 40 L 797 40 L 797 79 L 704 79 L 704 40 Z Z" stroke-miterlimit="10"></path></g><g transform="translate(-30,2) scale(1,1)"><g><path fill="none" stroke="none"></path><text fill="#000000" stroke="none" font-family="Arial" font-size="13px" font-style="normal" font-weight="normal" text-decoration="none" x="719" y="57.5">«interface»</text></g></g><g transform="translate(-30,2) scale(1,1)"><g><path fill="none" stroke="none"></path><text fill="#000000" stroke="none" font-family="Arial" font-size="13px" font-style="normal" font-weight="bold" text-decoration="none" x="722" y="72.5">ExamDao</text></g></g><g transform="translate(-30,2) scale(1,1)"><path fill="none" stroke="#000000" d="M 751.5 80 L 751.5 239" stroke-miterlimit="10" stroke-dasharray="3"></path></g><g transform="translate(-30,2) scale(1,1)"><path fill="#ffffff" stroke="none" d="M 89.5709090909091 47.3 C 89.5709090909091 43.82060576 92.44931081309092 41 96 41 C 99.55068918690908 41 102.4290909090909 43.82060576 102.4290909090909 47.3 C 102.4290909090909 50.779394239999995 99.55068918690908 53.6 96 53.6 C 92.44931081309092 53.6 89.5709090909091 50.779394239999995 89.5709090909091 47.3 Z"></path></g><g transform="translate(-30,2) scale(1,1)"><path fill="none" stroke="#000000" d="M 89.5709090909091 47.3 C 89.5709090909091 43.82060576 92.44931081309092 41 96 41 C 99.55068918690908 41 102.4290909090909 43.82060576 102.4290909090909 47.3 C 102.4290909090909 50.779394239999995 99.55068918690908 53.6 96 53.6 C 92.44931081309092 53.6 89.5709090909091 50.779394239999995 89.5709090909091 47.3 Z" stroke-miterlimit="10"></path></g><g transform="translate(-30,2) scale(1,1)"><path fill="none" stroke="#000000" d="M 96 53.6 L 96 66.4" stroke-miterlimit="10"></path></g><g transform="translate(-30,2) scale(1,1)"><path fill="none" stroke="#000000" d="M 89.19272727272727 58.4 L 102.80727272727273 58.4" stroke-miterlimit="10"></path></g><g transform="translate(-30,2) scale(1,1)"><path fill="none" stroke="#000000" d="M 96 66.4 L 86.54545454545455 79" stroke-miterlimit="10"></path></g><g transform="translate(-30,2) scale(1,1)"><path fill="none" stroke="#000000" d="M 96 66.4 L 105.45454545454545 79" stroke-miterlimit="10"></path></g><g transform="translate(-30,2) scale(1,1)"><g><path fill="none" stroke="none"></path><text fill="#000000" stroke="none" font-family="Arial" font-size="13px" font-style="normal" font-weight="bold" text-decoration="none" x="78.5" y="99.5">: User</text></g></g><g transform="translate(-30,2) scale(1,1)"><path fill="none" stroke="#000000" d="M 97.5 105 L 97.5 190" stroke-miterlimit="10" stroke-dasharray="3"></path></g><g transform="translate(-30,2) scale(1,1)"><path fill="none" stroke="#000000" d="M 97 112 L 333 112" stroke-miterlimit="10"></path></g><g transform="translate(-30,2) scale(1,1)"><path fill="#000000" stroke="none" d="M 322.83732514237585 116.20951775601598 L 333 112 L 322.83732514237585 107.79048224398402"></path></g><g transform="translate(-30,2) scale(1,1)"><path fill="none" stroke="#000000" d="M 322.83732514237585 116.20951775601598 L 333 112 L 322.83732514237585 107.79048224398402 L 322.83732514237585 116.20951775601598" stroke-miterlimit="10"></path></g><g transform="translate(-30,2) scale(1,1)"><g><path fill="none" stroke="none"></path><text fill="#000000" stroke="none" font-family="Arial" font-size="13px" font-style="normal" font-weight="normal" text-decoration="none" x="121.5" y="107.5">1 : Meine Prüfungen anzeigen()</text></g></g><g transform="translate(-30,2) scale(1,1)"><rect fill="#ffffff" stroke="none" x="333" y="112" width="13" height="72"></rect></g><g transform="translate(-30,2) scale(1,1)"><path fill="none" stroke="#000000" d="M 333 112 L 346 112 L 346 184 L 333 184 L 333 112 Z Z" stroke-miterlimit="10"></path></g><g transform="translate(-30,2) scale(1,1)"><path fill="none" stroke="#000000" d="M 346 120 L 567 120" stroke-miterlimit="10"></path></g><g transform="translate(-30,2) scale(1,1)"><path fill="#000000" stroke="none" d="M 556.8373251423759 124.20951775601598 L 567 120 L 556.8373251423758 115.79048224398402"></path></g><g transform="translate(-30,2) scale(1,1)"><path fill="none" stroke="#000000" d="M 556.8373251423759 124.20951775601598 L 567 120 L 556.8373251423758 115.79048224398402 L 556.8373251423759 124.20951775601598" stroke-miterlimit="10"></path></g><g transform="translate(-30,2) scale(1,1)"><g><path fill="none" stroke="none"></path><text fill="#000000" stroke="none" font-family="Arial" font-size="13px" font-style="normal" font-weight="normal" text-decoration="none" x="383.5" y="116.5">2 : showPendingExams()</text></g></g><g transform="translate(-30,2) scale(1,1)"><rect fill="#ffffff" stroke="none" x="567" y="120" width="13" height="55"></rect></g><g transform="translate(-30,2) scale(1,1)"><path fill="none" stroke="#000000" d="M 567 120 L 580 120 L 580 175 L 567 175 L 567 120 Z Z" stroke-miterlimit="10"></path></g><g transform="translate(-30,2) scale(1,1)"><path fill="none" stroke="#000000" d="M 580 128 L 744 128" stroke-miterlimit="10"></path></g><g transform="translate(-30,2) scale(1,1)"><path fill="#000000" stroke="none" d="M 733.8373251423759 132.209517756016 L 744 128 L 733.8373251423758 123.79048224398402"></path></g><g transform="translate(-30,2) scale(1,1)"><path fill="none" stroke="#000000" d="M 733.8373251423759 132.209517756016 L 744 128 L 733.8373251423758 123.79048224398402 L 733.8373251423759 132.209517756016" stroke-miterlimit="10"></path></g><g transform="translate(-30,2) scale(1,1)"><g><path fill="none" stroke="none"></path><text fill="#000000" stroke="none" font-family="Arial" font-size="13px" font-style="normal" font-weight="normal" text-decoration="none" x="609.5" y="123.5">3 : loadExams()</text></g></g><g transform="translate(-30,2) scale(1,1)"><rect fill="#ffffff" stroke="none" x="744" y="128" width="13" height="40"></rect></g><g transform="translate(-30,2) scale(1,1)"><path fill="none" stroke="#000000" d="M 744 128 L 757 128 L 757 168 L 744 168 L 744 128 Z Z" stroke-miterlimit="10"></path></g><g transform="translate(-30,2) scale(1,1)"><path fill="none" stroke="#000000" d="M 744 152 L 580 152" stroke-miterlimit="10" stroke-dasharray="3"></path></g><g transform="translate(-30,2) scale(1,1)"><path fill="none" stroke="#000000" d="M 590.1626748576241 147.790482243984 L 580 152 L 590.1626748576241 156.209517756016" stroke-miterlimit="10"></path></g><g transform="translate(-30,2) scale(1,1)"><g><path fill="none" stroke="none"></path><text fill="#000000" stroke="none" font-family="Arial" font-size="13px" font-style="normal" font-weight="normal" text-decoration="none" x="651.5" y="168.5">4 : </text></g></g><g transform="translate(-30,2) scale(1,1)"><path fill="none" stroke="#000000" d="M 567 154 L 346 154" stroke-miterlimit="10" stroke-dasharray="3"></path></g><g transform="translate(-30,2) scale(1,1)"><path fill="none" stroke="#000000" d="M 356.16267485762415 149.790482243984 L 346 154 L 356.16267485762415 158.209517756016" stroke-miterlimit="10"></path></g><g transform="translate(-30,2) scale(1,1)"><g><path fill="none" stroke="none"></path><text fill="#000000" stroke="none" font-family="Arial" font-size="13px" font-style="normal" font-weight="normal" text-decoration="none" x="445.5" y="170.5">5 : </text></g></g></g></svg>